<?xml version="1.0" standalone="no"?>
<!DOCTYPE svg PUBLIC "-//W3C//DTD SVG 1.1//EN" "http://www.w3.org/Graphics/SVG/1.1/DTD/svg11.dtd" >
<svg xmlns="http://www.w3.org/2000/svg">
<metadata></metadata>
<defs>
<font id="akzidenz_grotesk_beitalic" horiz-adv-x="1110" >
<font-face units-per-em="2048" ascent="1638" descent="-410" />
<missing-glyph horiz-adv-x="598" />
<glyph horiz-adv-x="0" />
<glyph unicode="&#xd;" horiz-adv-x="0" />
<glyph unicode=" "  horiz-adv-x="598" />
<glyph unicode="&#x09;" horiz-adv-x="598" />
<glyph unicode="&#xa0;" horiz-adv-x="598" />
<glyph unicode="!" horiz-adv-x="555" d="M154 0l51 225h205l-54 -225h-202zM307 463l76 530l104 453h187l-111 -477l-160 -506h-96z" />
<glyph unicode="&#x22;" horiz-adv-x="811" d="M203 1427q0 52 34 79.5t78 27.5q65 0 93 -55q8 -23 8 -64l-84 -526h-47l-80 502q-2 18 -2 36zM586 1427q0 51 34.5 79t77.5 28q67 0 95 -55q8 -23 8 -64l-84 -526h-47l-80 502z" />
<glyph unicode="#" horiz-adv-x="1366" d="M182 469v158h305l33 221h-289v158h310l63 438h164l-63 -438h225l65 438h160l-59 -438h280v-158h-303l-33 -221h285v-158h-307l-68 -469h-162l68 469h-227l-68 -469h-164l70 469h-285zM649 627h230l30 221h-225z" />
<glyph unicode="$" horiz-adv-x="1366" d="M123 483l186 35q0 -107 27.5 -180t68.5 -114t81 -59.5t92 -35.5l133 576q-136 52 -214.5 107.5t-114.5 118.5t-36 136q0 114 58.5 201.5t166.5 142.5q52 27 106 41t88.5 17t113.5 6l36 157h138l-37 -166q64 -10 125 -31t121 -67q59 -45 90 -93t43 -94t18 -98l-186 -45 q-13 107 -58 168q-62 87 -188 115l-107 -496q118 -47 174 -75t103 -70q125 -107 125 -258q0 -199 -159.5 -324t-434.5 -125l-45 -192h-139l47 203q-48 7 -106 24.5t-126 61t-112 112.5q-78 118 -78 301zM535 1085q0 -77 73 -129q67 -45 144 -69l96 442q-75 -6 -126.5 -19.5 t-98.5 -49.5q-56 -43 -72 -94.5t-16 -80.5zM715 117q226 10 299 108t73 185q0 124 -139 192q-34 17 -108 49z" />
<glyph unicode="%" horiz-adv-x="1878" d="M186 795q0 104 27.5 206.5t82.5 190t132 137t176 49.5q119 0 183 -65.5t84 -150.5t20 -161q-3 -101 -33.5 -202t-85 -181.5t-130.5 -128t-171 -47.5q-132 0 -207 93q-78 91 -78 260zM309 772q0 -104 39 -164q24 -36 57 -54.5t70 -18.5q98 0 174 102q38 51 64 121 t40 139.5t15 106.5q0 92 -12 151q-21 82 -68.5 105.5t-81.5 23.5q-64 0 -118.5 -43.5t-94.5 -116t-62 -167t-22 -185.5zM602 -12l744 1427l88 -45l-742 -1429zM1153 338q0 139 49.5 274t145.5 221.5t225 86.5q119 0 183 -66t84 -150.5t20 -158.5q-5 -137 -57 -268t-146 -212 t-219 -81q-71 0 -122.5 27.5t-84.5 64.5q-78 91 -78 262zM1276 313q0 -102 39 -163q20 -33 55 -53.5t72 -20.5q97 0 176 102q38 50 64 120.5t40 140t15 106.5q0 94 -13 153q-21 80 -68.5 103.5t-82.5 23.5q-64 0 -118.5 -43.5t-94.5 -116t-62 -167t-22 -185.5z" />
<glyph unicode="&#x26;" horiz-adv-x="1280" d="M113 317q0 93 45.5 181t119.5 161t168 132q-20 134 -20 188q0 122 44 223.5t128 161t195 59.5q70 0 135 -28t106 -82.5t41 -130.5q0 -130 -123 -248q-51 -50 -119.5 -92.5t-197.5 -114.5q49 -115 91.5 -190t83.5 -125.5t93 -100.5q115 104 219 256l135 -82 q-55 -79 -85 -118.5t-67.5 -79t-86.5 -82.5q57 -33 79.5 -42.5t102.5 -35.5l-35 -152q-150 38 -278 125q-52 -33 -104.5 -59t-122.5 -42.5t-154 -16.5q-174 0 -262 70.5t-109.5 144t-21.5 120.5zM295 328q0 -97 61.5 -149t149.5 -52q127 0 256 90q-46 50 -88.5 104t-90 134 t-89.5 186q-71 -51 -135 -128.5t-64 -184.5zM592 983q0 -45 8 -111q77 40 112.5 61.5t84.5 65.5q66 59 91 101t25 82q0 62 -39.5 85t-76.5 23q-100 0 -152.5 -95t-52.5 -212z" />
<glyph unicode="'" horiz-adv-x="426" d="M203 1427q0 52 34 79.5t78 27.5q65 0 93 -55q8 -23 8 -64l-84 -526h-47l-80 502q-2 18 -2 36z" />
<glyph unicode="(" horiz-adv-x="768" d="M264 514q0 216 57 395t150.5 314.5t199.5 234t232 187.5h170q-124 -97 -212 -177t-171 -195.5t-145 -273.5q-59 -146 -88 -309t-29 -313q0 -81 8.5 -154t23.5 -149.5t25 -114t45 -164.5h-124q-50 115 -96 318t-46 401z" />
<glyph unicode=")" horiz-adv-x="768" d="M-119 -205l56 47q48 41 98.5 82.5t91.5 81.5q96 95 165 203t110 211t65 190q63 233 63 467q0 242 -102 568h127q139 -425 139 -723q0 -160 -39 -313t-114 -294q-94 -169 -209 -281t-285 -239h-166z" />
<glyph unicode="*" horiz-adv-x="768" d="M281 1253l53 107l205 -107l51 217l123 -14l-54 -231l232 28v-112l-221 -35l90 -232l-111 -43l-90 211l-186 -168l-78 89l194 178z" />
<glyph unicode="+" horiz-adv-x="1366" d="M164 514v164h510v510h164v-510h514v-164h-514v-514h-164v514h-510z" />
<glyph unicode="," horiz-adv-x="469" d="M16 -315q56 96 83.5 160t47.5 155h-81l51 225h194q-23 -187 -83.5 -328.5t-110.5 -211.5h-101z" />
<glyph unicode="-" horiz-adv-x="641" d="M176 588l35 149h418l-35 -149h-418z" />
<glyph unicode="." horiz-adv-x="469" d="M70 0l47 225h205l-46 -225h-206z" />
<glyph unicode="/" horiz-adv-x="641" d="M37 0l592 1446h159l-587 -1446h-164z" />
<glyph unicode="0" horiz-adv-x="1194" d="M156 508q0 151 41 307t121.5 286t199.5 207.5t268 77.5q178 0 273.5 -97.5t126.5 -225t31 -242.5q-1 -48 -10 -112t-23.5 -127.5t-32.5 -114.5q-49 -145 -134.5 -258t-196 -173.5t-238.5 -60.5q-190 0 -310 138q-116 141 -116 395zM332 469q0 -157 59 -250 q25 -38 55.5 -62.5t68.5 -38.5t75 -14q63 0 135.5 39.5t134.5 120.5q57 75 96.5 181.5t60 211t23.5 166.5q0 144 -18 234q-21 81 -66.5 126t-91.5 58.5t-78 13.5q-70 0 -157.5 -50.5t-163.5 -182.5q-44 -80 -74.5 -176t-44.5 -192.5t-14 -184.5z" />
<glyph unicode="1" horiz-adv-x="1194" d="M365 1006l32 141q27 -4 66 -4q77 0 143 18.5t120 72.5t79 152h170l-320 -1386h-170l246 1063q-40 -24 -69 -33q-28 -11 -82 -21t-115 -10q-18 1 -41.5 2.5t-34 2t-24.5 2.5z" />
<glyph unicode="2" horiz-adv-x="1194" d="M61 0l41 174q98 49 238 141q204 132 312 214.5t192 189.5q131 163 131 309q0 113 -68 166t-153 53q-59 0 -111.5 -24t-92.5 -68.5t-61.5 -105t-21.5 -134.5q0 -30 8 -88l-186 37q0 202 76.5 319t182 160t208.5 43q166 0 283.5 -87.5t117.5 -264.5q0 -233 -199 -450 q-79 -88 -192.5 -171.5t-233.5 -151.5t-235 -120l731 11l-35 -152h-932z" />
<glyph unicode="3" horiz-adv-x="1194" d="M94 410l182 22q16 -167 105 -244q83 -73 213 -73q104 0 173.5 39.5t102.5 103.5t33 129q0 51 -18.5 95t-59.5 77q-40 34 -89 50t-110 21t-173 7l32 139q42 -4 70 -4q24 0 78 4q159 11 235 66q47 34 78 85t31 117q0 49 -22 96t-74 78t-133 31q-93 0 -158.5 -42.5 t-97 -111.5t-33.5 -153l-191 35q27 105 47 158.5t70 107.5q64 71 158.5 107t206.5 36q133 0 224 -47t136 -126.5t45 -172.5q0 -129 -92 -225q-60 -62 -119 -81.5t-147 -31.5q113 -20 168 -61q58 -39 90 -107.5t32 -148.5q0 -95 -39 -170.5t-110.5 -129t-163 -81 t-192.5 -27.5q-86 0 -172.5 23t-151.5 72q-148 110 -164 338z" />
<glyph unicode="4" horiz-adv-x="1194" d="M121 375l33 145l813 866h168l-187 -866h185l-33 -145h-187l-86 -375h-161l86 375h-631zM352 520h432l166 668z" />
<glyph unicode="5" horiz-adv-x="1194" d="M96 383l168 27q16 -117 70 -184.5t118 -91t121 -23.5q77 0 147.5 31.5t123 86t83.5 132t31 165.5q0 133 -68 201t-169 68q-53 0 -107.5 -19t-97.5 -51q-31 -21 -45 -37t-47 -57l-182 28l190 703h770l-35 -145h-628l-115 -429q68 68 136.5 107t184.5 39t205 -51t137 -143 t48 -205q0 -116 -48 -228.5t-133 -191.5q-88 -82 -183.5 -111t-190.5 -29q-90 0 -175 22.5t-163 88.5q-81 71 -109.5 146.5t-36.5 150.5z" />
<glyph unicode="6" horiz-adv-x="1194" d="M193 526q0 187 69.5 366.5t167.5 287.5q54 60 120 105.5t146.5 73t165.5 27.5q147 0 262 -81q119 -86 150 -246l-176 -35q-15 88 -51 135q-28 37 -78 60.5t-111 23.5q-36 0 -84 -10q-94 -25 -157.5 -84.5t-114.5 -138.5q-95 -151 -133 -353q43 69 88.5 122.5t125 96 t191.5 42.5q88 0 161 -28.5t126.5 -84t81.5 -130.5t28 -169q0 -123 -56 -246.5t-173 -204t-289 -80.5q-223 0 -341.5 150t-118.5 401zM393 399q0 -122 72.5 -204t196.5 -82q100 0 177.5 56.5t118.5 145.5t43 187q0 135 -69 204.5t-180 69.5q-109 0 -190 -56t-125 -142.5 t-44 -178.5z" />
<glyph unicode="7" horiz-adv-x="1194" d="M240 965l92 397h848q-15 -114 -43 -187.5t-82 -164.5q-19 -34 -54 -93.5t-65 -109.5q-98 -176 -115 -209q-20 -39 -65.5 -132.5t-73.5 -159.5t-55 -143t-49 -163h-205q31 108 84 238q45 109 113 245.5t135 243.5q44 70 70.5 110.5t62.5 96.5q74 116 96 163.5t43 123.5 h-522l-60 -256h-155z" />
<glyph unicode="8" horiz-adv-x="1194" d="M143 336q0 85 33.5 158.5t95.5 132.5q70 63 172 92q-161 82 -161 252q0 103 53 198t163.5 156t264.5 61q88 0 164.5 -22t132 -66t85.5 -107t30 -140q0 -154 -111 -252q-33 -29 -67.5 -46.5t-84.5 -33.5q82 -27 131 -78q43 -43 64.5 -100t21.5 -121q0 -85 -32.5 -163 t-99.5 -142.5t-168.5 -102t-235.5 -37.5q-143 0 -246.5 48.5t-154 131t-50.5 181.5zM315 344q0 -113 85.5 -178.5t203.5 -65.5q93 0 175.5 41.5t130.5 113t48 159.5q-2 67 -36.5 121.5t-97 86t-140.5 31.5q-92 0 -178 -38t-138.5 -107.5t-52.5 -163.5zM455 985 q0 -82 58 -144.5t189 -62.5q56 0 119 21q115 40 149 115.5t34 127.5q0 97 -68.5 153t-181.5 56q-99 0 -167 -42.5t-100 -104t-32 -119.5z" />
<glyph unicode="9" horiz-adv-x="1194" d="M86 309l168 21q24 -110 95 -161.5t165 -51.5q59 0 115 18q122 41 217 164q63 86 92.5 168t58.5 219q-150 -248 -403 -248q-118 0 -208 51.5t-138.5 145t-48.5 209.5q0 100 35 199.5t103.5 176.5t166.5 121.5t223 44.5q203 0 324 -131q127 -140 127 -397q0 -151 -41 -305 t-125.5 -286.5t-213 -212t-294.5 -79.5q-156 0 -278.5 84.5t-139.5 249.5zM369 846q0 -129 71 -197.5t176 -68.5q64 0 126.5 23.5t117 72.5t88 128.5t33.5 182.5q-3 82 -36.5 141t-92.5 91t-131 32q-118 0 -197.5 -64.5t-117 -158t-37.5 -182.5z" />
<glyph unicode=":" horiz-adv-x="555" d="M154 0l51 227h203l-54 -227h-200zM322 782l51 224h200l-51 -224h-200z" />
<glyph unicode=";" horiz-adv-x="555" d="M109 -317q60 114 84.5 174t44.5 143h-86l53 223h198q-4 -45 -18.5 -111t-39.5 -143t-58 -150.5t-76 -135.5h-102zM315 782l54 224h204l-51 -224h-207z" />
<glyph unicode="&#x3c;" horiz-adv-x="1366" d="M96 635v176l1366 641v-178l-1161 -551l1161 -553v-176z" />
<glyph unicode="=" horiz-adv-x="1366" d="M96 330v159h1366v-159h-1366zM96 700v160h1366v-160h-1366z" />
<glyph unicode="&#x3e;" horiz-adv-x="1366" d="M76 -6v176l1161 553l-1161 551v178l1366 -641v-176z" />
<glyph unicode="?" d="M291 1014q8 93 43.5 173.5t96.5 141.5t148.5 96t194.5 35q129 0 215 -41q79 -34 154.5 -120t75.5 -226q0 -95 -41 -181.5t-129 -148t-224 -77.5l-69 -306h-160l102 441q160 0 248 69q41 35 65.5 89t24.5 112q0 69 -46 155.5t-208 86.5q-156 0 -233.5 -99t-79.5 -229z M500 0l51 229h188l-51 -229h-188z" />
<glyph unicode="@" horiz-adv-x="1835" d="M227 479q0 189 70 367t198 316t302 217t374 79q138 0 251.5 -42t192.5 -119.5t122 -187t43 -241.5q0 -139 -38.5 -267.5t-107 -233.5t-154 -164.5t-173.5 -59.5q-51 0 -86 21q-52 27 -66.5 66t-17.5 87q-48 -64 -117.5 -118t-175.5 -54q-111 0 -190 83.5t-79 248.5 q0 148 59.5 282.5t160 217t213.5 82.5q58 0 102.5 -20.5t77 -58.5t55.5 -93l31 127h139l-65 -307q-60 -254 -60 -349q0 -92 64 -92q43 0 96.5 48t102.5 132.5t79.5 193.5t30.5 222q0 125 -40.5 217.5t-110.5 151t-161 87t-190 28.5q-165 0 -313.5 -68.5t-261.5 -190.5 t-176.5 -279t-63.5 -327q0 -161 58 -281.5t156 -196t216 -110t238 -34.5q104 0 199.5 22.5t183 63.5t162.5 95t141 118l67 -84q-10 -10 -41.5 -39.5t-62.5 -54t-76 -54.5q-268 -180 -571 -180q-136 0 -274.5 41.5t-256 131t-187 229.5t-69.5 331zM737 485q0 -86 35 -141 q23 -31 57 -49.5t72 -18.5q76 0 143 62t108 163.5t42 211.5q0 102 -50 158.5t-122 56.5q-82 0 -147 -68t-101.5 -171.5t-36.5 -203.5z" />
<glyph unicode="A" horiz-adv-x="1366" d="M0 0l836 1448h221l186 -1448h-186l-51 455h-549l-262 -455h-195zM543 604h446l-71 725z" />
<glyph unicode="B" horiz-adv-x="1450" d="M117 0l334 1446h477q95 0 162 -5t120 -22q113 -33 174.5 -116.5t61.5 -192.5q0 -100 -42.5 -173t-113 -116.5t-149.5 -58.5q-19 -4 -51 -8q43 -4 65 -11q59 -12 110.5 -51.5t83 -104t31.5 -141.5q0 -72 -26.5 -143.5t-75.5 -128.5q-93 -112 -212.5 -142t-285.5 -32h-663z M330 150h407q65 0 112.5 2.5t98.5 11t86 24.5q61 30 96 77t48.5 97t13.5 95q0 109 -82 170q-45 33 -90 42t-117 11h-450zM487 834h400q43 0 74 1.5t58 5.5t58 14t56 24q127 72 127 221q0 85 -40.5 130t-88.5 56.5t-91 11.5h-446z" />
<glyph unicode="C" horiz-adv-x="1579" d="M178 637q0 172 53.5 324t155 267.5t248.5 181t326 65.5q154 0 278.5 -43.5t215 -141.5t134.5 -256l-182 -35q-29 107 -86 179q-41 53 -97.5 86t-125 49t-137.5 16q-160 0 -274.5 -67t-183.5 -174t-99.5 -226t-30.5 -229q0 -228 113 -370t348 -142q208 0 348 115 q44 37 100 109t90 157l182 -25q-9 -20 -32.5 -67t-43 -79.5t-53.5 -76.5q-65 -85 -155.5 -149t-201.5 -98t-241 -34q-171 0 -319.5 67.5t-239 217.5t-90.5 379z" />
<glyph unicode="D" horiz-adv-x="1493" d="M119 0l334 1448h430q121 -3 226 -19.5t194 -80.5q102 -74 149 -195.5t47 -265.5q0 -110 -21 -215t-61 -199.5t-95 -172t-126 -138.5q-85 -72 -176 -107.5t-171.5 -44t-201.5 -10.5h-528zM334 147h313q122 2 195.5 12.5t147 51.5t147.5 131q113 141 147.5 291.5 t34.5 249.5q0 142 -41 228t-106 125t-134 50.5t-151 11.5h-287z" />
<glyph unicode="E" horiz-adv-x="1280" d="M115 0l334 1446h942l-37 -154h-758l-111 -477h695l-33 -143h-694l-121 -518h860l-35 -154h-1042z" />
<glyph unicode="F" horiz-adv-x="1151" d="M117 0l334 1448h933l-36 -152h-752l-109 -473h701l-35 -147h-698l-158 -676h-180z" />
<glyph unicode="G" horiz-adv-x="1622" d="M195 618q0 271 118.5 466t306.5 293t392 98q133 0 259.5 -45t223 -145.5t137.5 -252.5l-192 -26q-29 86 -71 146.5t-103 100.5q-103 68 -250 68q-153 0 -243.5 -44t-151.5 -99q-107 -96 -171.5 -237.5t-64.5 -319.5q0 -137 45.5 -249.5t147 -181.5t256.5 -69 q113 0 217 41t176 119q67 71 95.5 147t47.5 172h-543l33 148h707l-172 -748h-164l43 180q-28 -41 -58.5 -70t-91.5 -61q-147 -76 -321 -76q-148 0 -262 49t-192 139.5t-116 206t-38 250.5z" />
<glyph unicode="H" horiz-adv-x="1536" d="M119 0l334 1446h178l-139 -604h798l140 604h178l-336 -1446h-176l159 690h-798l-160 -690h-178z" />
<glyph unicode="I" horiz-adv-x="555" d="M117 0l334 1446h176l-334 -1446h-176z" />
<glyph unicode="J" horiz-adv-x="895" d="M35 14l39 172q96 -49 207 -49q94 0 151 44t89 121.5t61 209.5l215 934h178l-227 -991q-38 -163 -79 -260t-134 -159.5t-256 -62.5q-88 0 -141 11.5t-103 29.5z" />
<glyph unicode="K" horiz-adv-x="1323" d="M119 0l334 1446h174l-158 -680l858 680h242l-686 -547l397 -899h-197l-344 786l-323 -256l-123 -530h-174z" />
<glyph unicode="L" d="M117 0l334 1446h180l-297 -1290h686l-37 -156h-866z" />
<glyph unicode="M" horiz-adv-x="1706" d="M119 0l334 1448h213l149 -1296l748 1296h215l-334 -1448h-172l313 1231l-702 -1231h-195l-137 1251l-260 -1251h-172z" />
<glyph unicode="N" horiz-adv-x="1493" d="M117 0l334 1446h194l473 -1251l273 1251h172l-334 -1446h-187l-479 1255l-272 -1255h-174z" />
<glyph unicode="O" horiz-adv-x="1622" d="M195 631q0 210 86.5 404.5t264 317t431.5 122.5q166 0 297.5 -59t210.5 -161q70 -88 104.5 -206.5t34.5 -243.5q-2 -162 -55.5 -309.5t-158 -267.5t-253 -187.5t-326.5 -67.5q-202 0 -346.5 90t-217 240t-72.5 328zM391 633q0 -158 59 -274t162.5 -178t233.5 -62 q124 0 231.5 52t187.5 147t124.5 224.5t44.5 276.5q0 159 -57 275t-161.5 176.5t-240.5 60.5q-189 0 -321.5 -102t-197.5 -263t-65 -333z" />
<glyph unicode="P" horiz-adv-x="1323" d="M113 0l333 1446h584q145 0 248 -60q164 -91 164 -309q0 -167 -71 -252.5t-169 -136.5q-60 -30 -110.5 -45.5t-107.5 -21t-150 -5.5h-398l-141 -616h-182zM471 768h322q85 0 133 2.5t94 13.5q82 21 136.5 66t81 104t26.5 121q0 209 -246 217h-426z" />
<glyph unicode="Q" horiz-adv-x="1622" d="M174 635q0 215 92 409t267 312.5t407 118.5q138 0 254 -44.5t201.5 -130t131.5 -208t46 -275.5q0 -82 -13 -163t-40 -158t-71.5 -150t-105.5 -137l183 -148l-127 -124l-195 155q-188 -119 -405 -119q-132 0 -246.5 46.5t-200 134.5t-132 210t-46.5 271zM369 623 q0 -118 32 -211t86 -156q58 -65 142.5 -102t173.5 -37q110 0 225.5 55.5t196.5 157.5q81 100 119 231.5t38 255.5q0 163 -55 279.5t-154.5 176.5t-228.5 60q-93 0 -183.5 -34t-160.5 -95q-82 -71 -132.5 -169.5t-74.5 -207t-24 -204.5z" />
<glyph unicode="R" horiz-adv-x="1366" d="M117 0l334 1448h583q81 0 137 -10q117 -25 196 -116t79 -241q0 -56 -17.5 -122t-50.5 -115q-99 -150 -331 -191l249 -653h-196l-236 629h-424l-145 -629h-178zM475 780h342q56 1 108 3.5t97 11.5q137 32 189.5 115.5t52.5 168.5q0 64 -26 112t-80.5 75.5t-133.5 27.5 h-430z" />
<glyph unicode="S" horiz-adv-x="1366" d="M125 467l192 37q0 -76 9 -131q32 -144 139 -204t235 -60q144 0 233 49.5t124 116.5t35 126q0 94 -70 152q-22 21 -57 38.5t-101 43.5l-176 70q-169 69 -255.5 147t-86.5 221q0 120 71.5 215.5t205.5 143.5q121 43 268 43q32 0 80 -4t106.5 -17.5t110.5 -36.5 q119 -56 169 -147t58 -185l-178 -43q-15 77 -41 134.5t-90 99.5q-85 59 -223 59q-103 0 -182 -32.5t-121.5 -88.5t-42.5 -124q0 -56 29 -93.5t73.5 -61.5t153.5 -71l219 -88q123 -49 194.5 -137.5t71.5 -210.5q0 -124 -58.5 -219.5t-164.5 -155.5q-141 -80 -355 -80 q-90 0 -177.5 16t-176.5 62q-51 28 -97.5 68t-85 128t-38.5 220z" />
<glyph unicode="T" d="M256 1290l37 156h1059l-35 -156h-440l-299 -1290h-183l307 1290h-446z" />
<glyph unicode="U" horiz-adv-x="1450" d="M219 395q0 91 45 324l168 729h180l-172 -748q-39 -185 -39 -266q0 -97 27 -155q33 -66 104 -109t185 -43q120 0 199 40t128 110.5t78 159.5t58 216l182 795h180l-201 -868q-36 -178 -98 -308t-191.5 -214.5t-344.5 -84.5q-115 0 -224.5 36.5t-186.5 131.5t-77 254z" />
<glyph unicode="V" horiz-adv-x="1194" d="M291 1446h182l94 -1235l658 1235h192l-796 -1446h-191z" />
<glyph unicode="W" horiz-adv-x="2048" d="M262 1446h174l117 -1217l627 1217h174l114 -1217l619 1217h188l-768 -1446h-166l-108 1255l-639 -1255h-182z" />
<glyph unicode="X" horiz-adv-x="1194" d="M-39 0l643 756l-282 690h186l223 -559l459 559h213l-606 -715l305 -731h-191l-245 602l-494 -602h-211z" />
<glyph unicode="Y" horiz-adv-x="1194" d="M289 1446h182l195 -653l565 653h217l-733 -817l-146 -629h-182l150 649z" />
<glyph unicode="Z" horiz-adv-x="1194" d="M-2 0l43 182l1028 1100h-784l37 164h1001l-39 -164l-1046 -1124h921l-37 -158h-1124z" />
<glyph unicode="[" horiz-adv-x="598" d="M98 -156l373 1753h365l-23 -110h-197l-323 -1534h194l-24 -109h-365z" />
<glyph unicode="\" horiz-adv-x="768" d="M264 1446h160l274 -1446h-163z" />
<glyph unicode="]" horiz-adv-x="598" d="M-47 -158l27 111h192l330 1532h-195l27 112h360l-375 -1755h-366z" />
<glyph unicode="^" horiz-adv-x="1366" d="M326 690l385 756h157l369 -756h-199l-254 531l-262 -531h-196z" />
<glyph unicode="_" horiz-adv-x="1024" d="M76 -154h1065v-102h-1065v102z" />
<glyph unicode="`" horiz-adv-x="598" d="M147 1399h207l95 -312h-109z" />
<glyph unicode="a" horiz-adv-x="1024" d="M74 219q0 51 18.5 102t52.5 91q49 60 123.5 88.5t188.5 46.5q28 5 162 24.5t159 24.5q21 102 21 127q0 88 -64 113.5t-127 25.5q-125 0 -172 -57t-61 -139l-182 16q28 80 69.5 144t130 110.5t232.5 46.5q77 0 133.5 -13.5t105.5 -47.5q42 -26 70.5 -67t28.5 -107 q0 -45 -19 -132l-88 -378q-8 -41 -8 -60q0 -51 49 -51q31 0 66 14l-31 -133q-60 -14 -96 -14q-73 0 -107.5 37.5t-34.5 81.5q1 7 1.5 13t0.5 15q-26 -40 -54 -68.5t-85 -54.5q-87 -38 -197 -38q-99 0 -163.5 34.5t-93.5 89t-29 115.5zM252 233q0 -63 47.5 -98t116.5 -35 q46 0 106.5 19.5t104.5 54.5q45 38 63.5 80t32.5 102l27 117q-125 -16 -183 -25t-103 -20.5t-89 -32.5q-123 -51 -123 -162z" />
<glyph unicode="b" horiz-adv-x="1151" d="M92 0l334 1448h156l-144 -625q50 72 119 111q46 25 96 37t101 12q112 0 193.5 -53t123 -145t41.5 -203q0 -64 -20 -160.5t-76 -198.5t-162.5 -171.5t-267.5 -69.5q-109 0 -170 30.5t-86.5 71.5t-40.5 94l-41 -178h-156zM348 360q0 -143 71.5 -200.5t160.5 -57.5 q60 0 118.5 24t102.5 67q66 63 105.5 173.5t41.5 211.5q0 76 -20 129t-53 84.5t-75.5 46t-90.5 14.5q-55 0 -109 -20t-99.5 -61t-78.5 -103q-30 -61 -52 -150.5t-22 -157.5z" />
<glyph unicode="c" horiz-adv-x="1024" d="M127 383q0 118 37 227t107.5 195t170.5 135t224 49q91 0 158 -23t114 -63t73 -93t31 -112l-151 -36q-12 50 -31.5 90t-68.5 73t-132 33t-152.5 -41.5t-116.5 -109.5t-72 -149.5t-25 -164.5q0 -77 28 -145.5t85 -110t141 -41.5t155 47q38 25 63.5 54.5t38 53.5t27.5 64 l170 -22q-73 -175 -221 -260q-101 -56 -245 -56q-156 0 -256 72q-96 69 -124 160.5t-28 173.5z" />
<glyph unicode="d" horiz-adv-x="1151" d="M129 391q0 142 59.5 279t179.5 225t287 88q74 0 134 -21t88 -47q38 -33 52 -63.5t21 -73.5l154 670h160l-336 -1448h-158l31 131q-116 -149 -303 -149q-210 0 -289.5 127.5t-79.5 281.5zM297 395q0 -141 67 -215t175 -74q122 0 202 83.5t115 197t37 213.5q0 94 -44 175 t-183 81q-119 0 -203 -71.5t-125 -178.5t-41 -211z" />
<glyph unicode="e" horiz-adv-x="1067" d="M127 387q0 110 35.5 218t104 195t168.5 138t227 51q182 0 272 -107.5t90 -287.5q0 -53 -12 -127h-723q-4 -54 -4 -72q0 -161 88.5 -227t183.5 -66q55 0 105 21q73 28 109 72.5t63 103.5l151 -27q-46 -114 -125.5 -180t-166.5 -90.5t-171 -24.5q-180 0 -287.5 110 t-107.5 300zM319 584h545q2 16 2 43q0 76 -31 130.5t-80.5 81.5t-103.5 27q-81 0 -182 -63t-150 -219z" />
<glyph unicode="f" horiz-adv-x="555" d="M111 0l194 842h-153l28 123h154l57 254q20 87 43 131q62 116 195 116q55 0 121 -22l-29 -123q-58 8 -76 8q-34 0 -55 -18q-28 -24 -49 -127l-52 -219h173l-27 -123h-174l-193 -842h-157z" />
<glyph unicode="g" d="M27 -154q0 22 6 66l164 18q-13 -40 -13 -75q0 -73 61.5 -128t170.5 -55q84 0 138 31t89 85t58 124.5t53 185.5q-46 -43 -113 -79.5t-168 -36.5q-120 0 -198.5 60.5t-113 151t-34.5 185.5q0 114 49 254.5t164.5 245t298.5 104.5q101 0 165.5 -39.5t117.5 -120.5l30 142 h156l-209 -912q-38 -173 -96 -282.5t-153 -165.5t-240 -56q-122 0 -209 40t-130.5 107.5t-43.5 149.5zM293 381q0 -137 63.5 -207t163.5 -70q150 0 248 162q42 73 65 173.5t25 170.5q0 118 -49 178q-21 29 -62 48.5t-96 19.5q-66 0 -145 -36t-141 -146q-37 -68 -54.5 -150.5 t-17.5 -142.5z" />
<glyph unicode="h" d="M92 0l334 1448h160l-150 -647l21 30q56 76 141 117t180 41q124 0 198.5 -60.5t74.5 -166.5q0 -47 -23 -158l-139 -604h-162l143 623q15 61 15 94q0 68 -44.5 104.5t-113.5 36.5q-67 0 -129.5 -28t-108.5 -78q-37 -41 -61 -87t-37.5 -87.5t-32.5 -118.5l-106 -459h-160z " />
<glyph unicode="i" horiz-adv-x="469" d="M84 0l223 965h162l-221 -965h-164zM373 1262l43 184h168l-43 -184h-168z" />
<glyph unicode="j" horiz-adv-x="469" d="M-199 -459l31 131q54 -4 66 -4q69 0 100 31q17 17 25.5 41.5t27.5 101.5l268 1123h156l-260 -1119q-32 -125 -45.5 -164t-38.5 -69q-28 -33 -76 -56.5t-143 -23.5q-49 0 -111 8zM381 1264l41 182h164l-43 -182h-162z" />
<glyph unicode="k" horiz-adv-x="981" d="M84 0l334 1446h160l-205 -883l510 402h215l-496 -390l369 -575h-197l-297 473l-151 -117l-82 -356h-160z" />
<glyph unicode="l" horiz-adv-x="469" d="M84 0l334 1446h160l-334 -1446h-160z" />
<glyph unicode="m" horiz-adv-x="1622" d="M88 0l223 965h158l-37 -156q37 51 71.5 86.5t98 64.5t148.5 29q89 0 151 -45q41 -28 56 -60t22 -75q46 61 88 94q113 86 250 86q42 0 92 -16q152 -47 152 -213q0 -33 -4 -55.5t-27 -141.5l-129 -563h-158l129 565q29 123 29 164q0 42 -18.5 72t-52.5 45.5t-79 15.5 q-74 0 -136 -37t-99 -94q-36 -56 -68 -180l-127 -551h-157l112 492q45 183 45 231q0 139 -145 139q-99 0 -176 -78q-51 -47 -81.5 -107.5t-58.5 -178.5l-114 -498h-158z" />
<glyph unicode="n" d="M84 0l223 965h162l-33 -140q62 65 139.5 114.5t190.5 49.5q52 0 102 -15.5t89.5 -46t63 -77t23.5 -107.5q0 -43 -22 -161l-135 -582h-160l137 594q15 59 15 113q0 62 -39 107.5t-127 45.5q-114 0 -199 -65q-60 -49 -91.5 -116t-66.5 -204l-110 -475h-162z" />
<glyph unicode="o" d="M127 399q0 167 71.5 302t196 211.5t271.5 76.5q78 0 148.5 -24.5t125.5 -74t89.5 -129t37.5 -183.5q0 -117 -36.5 -225t-108 -194t-170 -134t-217.5 -48t-211.5 51t-144.5 146.5t-52 224.5zM291 389q0 -125 51 -196q33 -45 82.5 -70t105.5 -25q34 0 84 13t113 58.5 t111 133.5q67 126 67 293q-3 129 -69 198.5t-168 69.5q-109 0 -195 -65t-134 -176t-48 -234z" />
<glyph unicode="p" d="M-12 -440l325 1405h158l-29 -121q47 58 111.5 98.5t175.5 40.5q90 0 169 -39t129 -124.5t50 -219.5q0 -117 -35 -229t-100.5 -199.5t-160.5 -138.5t-210 -51q-188 0 -264 137q-3 5 -20 45l-140 -604h-159zM342 342q0 -102 45 -153t92.5 -63.5t83.5 -12.5q107 0 188 71 t124 183t43 233q-3 155 -79.5 204.5t-146.5 49.5q-67 0 -142.5 -38t-127.5 -140q-30 -61 -55 -157t-25 -177z" />
<glyph unicode="q" d="M129 383q0 166 66 304t183 217t259 79q104 0 162 -32t78.5 -68t33.5 -84l39 166h158l-326 -1405h-157l133 575q-6 -9 -9.5 -14.5t-13.5 -20.5q-44 -56 -115.5 -87t-148.5 -31q-95 0 -172.5 44.5t-123.5 135t-46 221.5zM297 381q0 -122 55 -193q59 -75 160 -75 q51 0 121 29.5t127 117.5q35 56 58 133.5t33.5 151t10.5 114.5q-3 65 -32.5 110t-77 67t-101.5 22q-79 0 -144 -37t-111 -102t-72.5 -153t-26.5 -185z" />
<glyph unicode="r" horiz-adv-x="641" d="M86 0l221 965h158l-39 -170q24 41 40.5 61.5t55.5 52.5q84 74 189 74q24 0 39 -2l-35 -152q-113 0 -178 -34q-57 -34 -96 -95t-58.5 -118.5t-36.5 -126.5l-104 -455h-156z" />
<glyph unicode="s" horiz-adv-x="981" d="M94 266q0 15 2 30.5t4 35.5l164 26q-12 -52 -12 -84q0 -104 70.5 -141t158.5 -37q122 0 183 51t61 117q0 51 -34.5 82t-112.5 60l-168 65q-95 41 -147 93t-52 136q0 71 41.5 136.5t128 108t215.5 42.5q154 0 248 -62.5t94 -191.5q0 -11 -0.5 -19t-1.5 -18l-156 -26 q6 45 6 55q0 35 -21 68t-63.5 54t-103.5 21q-104 0 -160.5 -44.5t-56.5 -100.5q0 -35 18 -58t45.5 -37t81.5 -36l158 -62q69 -29 114 -56t72 -70t27 -109q0 -52 -20 -104.5t-58 -94.5q-67 -75 -156.5 -98t-189.5 -23q-167 0 -273 70.5t-106 220.5z" />
<glyph unicode="t" horiz-adv-x="555" d="M152 840l28 125h154l69 303h154l-70 -303h170l-28 -125h-170l-123 -529q-23 -92 -23 -125q0 -59 72 -59q15 0 111 16l-29 -120q-65 -29 -154 -29q-159 0 -159 135q0 55 22 150l129 561h-153z" />
<glyph unicode="u" d="M152 207q0 28 8 72.5t22 109.5l131 576h162l-131 -574q-22 -114 -22 -143q0 -37 14 -66q17 -29 58.5 -49t97.5 -20q43 0 93 13.5t91 39.5q43 26 72 64t47.5 81t30.5 87.5t34 140.5l98 426h154l-221 -965h-156l35 152q-60 -73 -121 -109q-54 -31 -113 -46t-118 -15 q-117 0 -191.5 61t-74.5 164z" />
<glyph unicode="v" horiz-adv-x="938" d="M197 965h151l66 -797l467 797h176l-596 -965h-168z" />
<glyph unicode="w" horiz-adv-x="1536" d="M197 965h155l64 -789l411 789h158l70 -789l426 789h170l-559 -965h-158l-66 786l-419 -786h-156z" />
<glyph unicode="x" horiz-adv-x="895" d="M-47 0l465 502l-137 463h155l94 -351l314 351h186l-446 -486l141 -479h-158l-94 367l-328 -367h-192z" />
<glyph unicode="y" horiz-adv-x="938" d="M-111 -465l33 139q34 -6 76 -6q55 0 100 27q30 17 86 104l127 217l-106 949h157l76 -770l426 770h178l-729 -1231q-57 -90 -89.5 -127.5t-84 -58.5t-139.5 -21q-53 0 -111 8z" />
<glyph unicode="z" horiz-adv-x="938" d="M-2 0l31 129l729 696h-545l31 140h737l-35 -152l-706 -674h612l-33 -139h-821z" />
<glyph unicode="{" horiz-adv-x="725" d="M223 682v82q47 13 73 30.5t48 67.5q17 36 21 80.5t4 151.5v123q2 145 15 214.5t60 120.5q51 55 109 70.5t184 22.5v-82q-60 -16 -100.5 -36.5t-69.5 -70.5q-20 -34 -25.5 -77.5t-9.5 -159.5v-31q0 -123 -2 -187q-4 -140 -46 -195.5t-130 -84.5q92 -33 133 -88.5 t45 -183.5q3 -58 3 -173v-59q2 -119 13 -176t53.5 -97.5t135.5 -66.5v-82q-73 2 -124 9t-92 25t-72 50q-35 38 -52.5 90.5t-21.5 104.5t-4 121v133q0 115 -4 160.5t-19 78.5q-21 52 -50 74.5t-75 40.5z" />
<glyph unicode="|" horiz-adv-x="469" d="M240 -512v2048h163v-2048h-163z" />
<glyph unicode="}" horiz-adv-x="725" d="M182 -121q69 21 105.5 39t64.5 68q21 34 27 81t8 156v31q0 123 2 186q3 97 25 153t57.5 82.5t93.5 45.5q-63 24 -99 52t-56 80t-23 140q-2 58 -2 172v60q-2 118 -13.5 175.5t-54.5 98t-135 66.5v82q110 -3 176.5 -20t112.5 -64q53 -57 65.5 -132.5t12.5 -183.5v-133 q0 -102 4 -153t18 -87q22 -50 50.5 -72.5t74.5 -41.5v-82q-47 -14 -72.5 -31t-48.5 -67q-16 -37 -20 -87t-4 -145v-123q-2 -102 -6.5 -157.5t-21 -99.5t-48.5 -79q-37 -39 -74 -57t-79.5 -23.5t-139.5 -11.5v82z" />
<glyph unicode="~" horiz-adv-x="1366" d="M248 592q116 172 272 172q85 0 228 -68l67 -30q91 -43 143 -43q43 0 80.5 21t62 46t54.5 60l78 -146q-35 -42 -72 -76t-90 -61t-119 -27q-30 0 -61 7.5t-77 28t-64 28.5l-62 31q-104 49 -164 49q-55 0 -91 -28t-103 -110z" />
<glyph unicode="&#xa1;" horiz-adv-x="555" d="M72 0l114 475l156 508l94 -2l-78 -530l-104 -451h-182zM338 1219l53 227h203l-53 -227h-203z" />
<glyph unicode="&#xa2;" horiz-adv-x="1024" d="M141 385q0 108 35.5 214t103 192t164 137.5t218.5 54.5l38 166h123l-39 -166q69 -9 128 -45.5t98 -100t49 -141.5l-152 -37q-17 82 -53.5 128.5t-99.5 56.5l-160 -742q71 0 127 39q82 59 125 174l172 -20q-27 -77 -77 -138.5t-97 -95.5q-113 -79 -281 -79l-43 -189h-133 l45 195q-172 35 -231.5 157t-59.5 240zM309 381q0 -206 154 -264l168 735q-124 -12 -209 -115q-113 -147 -113 -356z" />
<glyph unicode="&#xa3;" horiz-adv-x="1409" d="M4 166q0 89 83 141.5t192 52.5q54 0 96.5 -11t126.5 -40q19 36 30.5 65.5t23.5 79t32 142.5h-328l31 131h327q4 16 18 109t17 110q26 162 76 260q51 98 135 154t173.5 78t166.5 22q153 0 258 -65q90 -57 116.5 -125.5t33.5 -153.5l-180 -35q4 30 4 49q0 50 -33.5 94.5 t-92.5 71.5t-128 27q-104 0 -187 -55q-72 -50 -108 -127.5t-62 -206.5l-37 -207h359l-31 -131h-358q-28 -162 -125 -346q79 -44 163 -77.5t148 -33.5q80 0 129.5 51t65.5 138l174 -19q-17 -69 -57.5 -141.5t-118.5 -125t-193 -52.5q-57 0 -127 19t-130 46t-99.5 49.5 t-40.5 22.5q-64 -65 -143.5 -102t-165.5 -37q-69 0 -151.5 36t-82.5 142zM133 172q0 -19 23 -40t80 -21q40 0 95.5 23.5t90.5 66.5q-52 18 -87 26.5t-81 8.5q-64 0 -92.5 -22.5t-28.5 -41.5z" />
<glyph unicode="&#xa4;" horiz-adv-x="1366" d="M162 223l155 156q-31 45 -50 79.5t-36.5 98t-17.5 139.5q0 114 30.5 186t73.5 132l-153 153l123 123l153 -153q39 27 78.5 48.5t100 38.5t141.5 17q111 0 185 -30.5t130 -73.5l156 153l123 -123l-154 -153q41 -57 72 -130.5t31 -187.5q0 -112 -29.5 -183t-75.5 -136 l156 -156l-125 -125l-154 158q-65 -44 -135.5 -73t-179.5 -29q-83 0 -143 16.5t-97.5 37.5t-79.5 50l-155 -156zM377 696q0 -109 52 -197.5t140.5 -138t192.5 -49.5q79 0 146.5 28.5t119.5 80.5t81.5 124t29.5 152q0 111 -52.5 199.5t-140.5 137t-188 48.5 q-99 0 -187.5 -47.5t-141 -136.5t-52.5 -201z" />
<glyph unicode="&#xa5;" horiz-adv-x="1194" d="M135 446l31 132h381l8 40l-8 48h-361l31 135h277l-197 579h182l203 -628l557 628h217l-534 -579h274l-31 -135h-370l-66 -70l-4 -18h420l-31 -132h-420l-102 -446h-178l102 446h-381z" />
<glyph unicode="&#xa6;" horiz-adv-x="469" d="M240 -358v716h163v-716h-163zM240 666v716h163v-716h-163z" />
<glyph unicode="&#xa7;" horiz-adv-x="1237" d="M125 -123l39 168q38 -30 100.5 -72.5t164.5 -85.5t202 -43q97 0 158 50t61 126q0 65 -48 110.5t-157 90.5l-143 70q-277 123 -277 323q0 105 62 189q67 91 207 135q-46 46 -74.5 94t-28.5 129q0 80 45 152t126 114.5t186 42.5q133 0 238 -40t175 -89l-37 -159 q-84 60 -151 90q-119 49 -215 49q-118 0 -158.5 -54t-40.5 -106q0 -70 45.5 -106t122.5 -68l164 -69q22 -11 51.5 -25.5t36.5 -18.5q74 -37 138.5 -104.5t64.5 -194.5q0 -57 -24.5 -114.5t-61.5 -98.5q-39 -41 -82 -65t-103 -45q42 -37 73.5 -89t31.5 -136q0 -94 -46.5 -168 t-134.5 -116t-204 -42q-90 0 -185 25.5t-179.5 66t-141.5 84.5zM381 647q0 -77 55 -123t137 -86l203 -96q76 0 142 33q67 32 87.5 85t20.5 87q0 75 -48 123.5t-130 85.5l-207 94q-63 -4 -106.5 -15t-90.5 -51q-28 -25 -45.5 -54.5t-17.5 -82.5z" />
<glyph unicode="&#xa8;" horiz-adv-x="598" d="M-16 1130l47 207h186l-47 -207h-186zM381 1130l47 207h186l-47 -207h-186z" />
<glyph unicode="&#xa9;" horiz-adv-x="1706" d="M221 723q0 153 56.5 286t159 233t234.5 155t279 55q155 0 288.5 -56.5t233 -158.5t153.5 -235.5t54 -282.5q-1 -198 -97.5 -365t-263.5 -263.5t-368 -96.5q-189 0 -357.5 92.5t-270 259.5t-101.5 377zM287 723q0 -182 89.5 -335.5t241.5 -241t332 -87.5q137 0 258.5 50 t214 143t142 213.5t49.5 253.5q0 137 -49 258t-138 213t-211 144t-262 52q-137 0 -259 -51t-214 -143t-143 -213t-51 -256zM481 723q0 137 63 248.5t173.5 175t249.5 63.5q104 0 182 -32.5t123.5 -71.5t81.5 -80l-115 -106q-48 55 -111 96t-161 41q-90 0 -165 -42.5 t-118 -118.5t-43 -171q0 -71 25.5 -132t70.5 -105t106 -68.5t126 -24.5q68 0 122 22.5t83 47t65 63.5l115 -100q-155 -186 -391 -186q-137 0 -247 62t-172.5 172.5t-62.5 246.5z" />
<glyph unicode="&#xaa;" horiz-adv-x="725" d="M291 1018q0 98 70 138.5t143 49.5l194 31q11 31 11 63q0 78 -103 78q-107 0 -131 -112l-117 8q17 49 40 86.5t76 68.5t140 31q63 0 133 -30.5t70 -114.5q0 -23 -10 -78l-43 -182q-12 -48 -12 -68q0 -24 22 -24q17 0 45 14l-20 -92q-46 -8 -62 -8q-75 0 -88 67 q-34 -44 -88.5 -61t-99.5 -17q-75 0 -122.5 42t-47.5 110zM403 1018q0 -72 91 -72q93 0 141 66q25 34 45 137q-40 -3 -105.5 -14.5t-93.5 -22.5q-78 -28 -78 -94z" />
<glyph unicode="&#xab;" horiz-adv-x="811" d="M152 602l30 135l338 236l-45 -195l-182 -119l123 -139l-39 -162zM502 598l33 139l335 232l-45 -193l-182 -119l125 -135l-39 -170z" />
<glyph unicode="&#xac;" horiz-adv-x="1366" d="M76 516v164h1366v-680h-164v516h-1202z" />
<glyph unicode="&#xad;" horiz-adv-x="641" d="M176 588l35 149h418l-35 -149h-418z" />
<glyph unicode="&#xae;" horiz-adv-x="1706" d="M221 721q0 155 56.5 289t159.5 234.5t234 154t277 53.5q155 0 291 -57.5t234.5 -159t152 -234t53.5 -282.5q0 -146 -57 -281t-155.5 -233.5t-233 -154.5t-285.5 -56q-139 0 -272 53.5t-234.5 150t-161 232t-59.5 291.5zM287 721q0 -182 89.5 -334.5t241.5 -240t332 -87.5 q139 0 260 51t211.5 141.5t141.5 213t51 254.5q0 180 -87 333.5t-238.5 243.5t-336.5 90q-137 0 -258.5 -51t-213 -143t-142.5 -213.5t-51 -257.5zM641 268v920h299q87 0 133 -4.5t82 -18.5q70 -24 109 -83t39 -130q0 -85 -48.5 -139.5t-140.5 -79.5q60 -26 88.5 -64.5 t42.5 -127.5q20 -126 30 -169t40 -104h-187q-21 38 -36 127q-4 22 -11 67.5t-12 74.5q-17 91 -61.5 116t-145.5 27h-57v-412h-164zM807 811h135q51 0 91.5 6.5t73 34.5t32.5 86q0 31 -16 63t-50 46q-25 11 -50 12.5t-112 1.5h-104v-250z" />
<glyph unicode="&#xaf;" horiz-adv-x="598" d="M-10 1130l33 160h587l-32 -160h-588z" />
<glyph unicode="&#xb0;" horiz-adv-x="725" d="M170 1219q0 90 44.5 165.5t119 119.5t166.5 44q68 0 127 -24.5t106 -71.5t71.5 -106t24.5 -127q0 -92 -44 -166.5t-119.5 -119t-165.5 -44.5q-92 0 -166.5 44.5t-119 119t-44.5 166.5zM338 1219q0 -68 48 -115t114 -47q68 0 115 47t47 115q0 67 -47 114t-115 47 q-66 0 -114 -47t-48 -114z" />
<glyph unicode="&#xb1;" horiz-adv-x="1366" d="M170 0v162h1198v-162h-1198zM170 772v162h520v496h164v-496h514v-162h-514v-498h-164v498h-520z" />
<glyph unicode="&#xb2;" horiz-adv-x="811" d="M127 459l27 121q77 38 183 107t118 81q100 70 160 135t87 124t27 112q0 72 -43.5 105.5t-97.5 33.5q-79 0 -133 -60.5t-54 -152.5q0 -40 7 -64l-132 27q0 201 101.5 275.5t210.5 74.5q70 0 130.5 -24.5t99 -77.5t38.5 -135q0 -113 -64 -209t-155 -170q-33 -26 -74 -54.5 t-108 -69t-152 -79.5l469 8l-24 -108h-621z" />
<glyph unicode="&#xb3;" horiz-adv-x="811" d="M147 735l127 15q23 -209 207 -209q99 0 150 53t51 123q0 69 -49 110q-40 35 -89 42.5t-161 9.5l23 98q16 -2 49 -2q142 0 204 45q31 22 50.5 57t19.5 74q0 51 -34.5 91t-112.5 40q-57 0 -99.5 -26t-65 -72t-22.5 -105l-133 25q12 54 28.5 98.5t49.5 81.5q39 44 101.5 69 t142.5 25q86 0 147.5 -31t92 -84t30.5 -114q0 -80 -53.5 -144.5t-161.5 -78.5q89 -19 130.5 -76t41.5 -133q0 -85 -46 -147.5t-123.5 -95t-168.5 -32.5q-131 0 -215 64q-100 72 -111 229z" />
<glyph unicode="&#xb4;" horiz-adv-x="598" d="M90 1092l176 307h240l-293 -307h-123z" />
<glyph unicode="&#xb5;" d="M-10 -440l323 1405h162l-131 -574q-16 -66 -16 -106q0 -86 54 -129t134 -43q67 0 131.5 32t110.5 95q35 48 56 115.5t46 185.5l98 424h154l-221 -965h-156l35 152q-76 -86 -140.5 -128t-164.5 -42q-55 0 -89.5 15t-51 37.5t-39.5 67.5l-133 -542h-162z" />
<glyph unicode="&#xb6;" horiz-adv-x="1366" d="M274 1036q0 87 34 169.5t95 135.5q71 65 150 84t176 21h471v-111h-70v-1675h-118v1675h-297v-1675h-117v993q-67 14 -100 25t-82 49q-68 52 -105 133.5t-37 175.5z" />
<glyph unicode="&#xb8;" horiz-adv-x="598" d="M147 -383l15 53q37 0 64 4t43 17.5t16 40.5q0 37 -29.5 52.5t-77.5 25.5l164 227h74l-88 -121q63 -4 93 -36.5t30 -82.5q0 -73 -61.5 -129.5t-170.5 -56.5q-40 0 -72 6z" />
<glyph unicode="&#xb9;" horiz-adv-x="811" d="M309 1120l25 101q22 -2 45 -2q85 0 142.5 33.5t80.5 125.5h119l-213 -919h-119l162 694q-68 -37 -172 -37q-20 0 -70 4z" />
<glyph unicode="&#xba;" horiz-adv-x="725" d="M285 1108q0 157 89 254.5t224 97.5q103 0 168 -66.5t65 -193.5q-3 -96 -43 -173.5t-109 -122t-155 -44.5q-79 0 -132.5 34t-80 90.5t-26.5 123.5zM391 1110q0 -75 36 -119.5t99 -44.5q49 0 93 30t73 88t33 134q0 83 -33.5 130.5t-97.5 47.5q-57 0 -103.5 -35.5t-73 -96 t-26.5 -134.5z" />
<glyph unicode="&#xbb;" horiz-adv-x="811" d="M100 356l45 193l183 119l-125 135l39 166l227 -244l-33 -137zM453 354l45 193l180 123l-121 137l37 160l225 -242l-31 -137z" />
<glyph unicode="&#xbc;" horiz-adv-x="1878" d="M309 1120l25 101q22 -2 45 -2q85 0 142.5 33.5t80.5 125.5h119l-213 -921h-119l162 696q-68 -37 -172 -37q-20 0 -70 4zM563 -12l744 1427l88 -45l-742 -1429zM1133 246l22 100l537 574h116l-122 -572h122l-24 -102h-123l-55 -246h-115l57 246h-415zM1298 348h273 l104 424z" />
<glyph unicode="&#xbd;" horiz-adv-x="1878" d="M309 1120l25 101q22 -2 45 -2q85 0 142.5 33.5t80.5 125.5h119l-213 -921h-119l162 696q-65 -37 -172 -37q-20 0 -70 4zM518 -12l744 1427l88 -45l-742 -1429zM1094 0l28 121q76 38 181.5 107t117.5 81q275 192 275 371q0 72 -43.5 105.5t-98.5 33.5q-78 0 -132 -60.5 t-54 -152.5q0 -39 6 -63l-131 26q0 140 53.5 218.5t125 105.5t132.5 27q69 0 130.5 -25t100 -77.5t38.5 -135.5q0 -113 -64 -209t-155 -170q-175 -130 -334 -203l469 9l-25 -109h-620z" />
<glyph unicode="&#xbe;" horiz-adv-x="1878" d="M147 735l127 15q23 -209 207 -209q99 0 150 53t51 123q0 69 -49 110q-40 35 -89 42.5t-161 9.5l23 98q16 -2 49 -2q142 0 204 45q31 22 50.5 57t19.5 74q0 51 -34.5 91t-112.5 40q-57 0 -99.5 -26t-65 -72t-22.5 -105l-133 25q12 54 28.5 98.5t49.5 81.5q39 44 101.5 69 t142.5 25q86 0 147.5 -31t92 -84t30.5 -114q0 -80 -53.5 -144.5t-161.5 -78.5q89 -19 130.5 -76t41.5 -133q0 -85 -46 -147.5t-123.5 -95t-168.5 -32.5q-131 0 -215 64q-100 72 -111 229zM653 -12l744 1427l88 -45l-742 -1429zM1133 246l22 100l537 576h118l-124 -574h122 l-22 -102h-123l-57 -246h-115l57 246h-415zM1298 348h275l102 426z" />
<glyph unicode="&#xbf;" d="M90 375q0 215 172 327q61 42 109 55.5t112 20.5l70 305h162l-103 -440q-163 -6 -243 -65q-42 -31 -69.5 -87.5t-27.5 -121.5q0 -87 58 -163.5t198 -76.5q96 0 168 45q79 48 107.5 119t38.5 164l176 -29q-10 -122 -65 -221.5t-162 -159t-261 -59.5q-132 0 -231.5 47 t-154 134.5t-54.5 205.5zM567 1217l54 229h190l-53 -229h-191z" />
<glyph unicode="&#xc0;" horiz-adv-x="1366" d="M0 0l836 1448h221l186 -1448h-186l-51 455h-549l-262 -455h-195zM543 604h446l-71 725zM770 1833h213l74 -256h-113z" />
<glyph unicode="&#xc1;" horiz-adv-x="1366" d="M0 0l836 1448h221l186 -1448h-186l-51 455h-549l-262 -455h-195zM543 604h446l-71 725zM856 1573l176 260h258l-299 -260h-135z" />
<glyph unicode="&#xc2;" horiz-adv-x="1366" d="M0 0l836 1448h221l186 -1448h-186l-51 455h-549l-262 -455h-195zM543 604h446l-71 725zM690 1573l264 260h148l117 -260h-138l-67 162l-160 -162h-164z" />
<glyph unicode="&#xc3;" horiz-adv-x="1366" d="M0 0l836 1448h221l186 -1448h-186l-51 455h-549l-262 -455h-195zM543 604h446l-71 725zM612 1614q95 201 252 201q44 0 109 -21q93 -31 130.5 -41t82.5 -10q40 0 66 19t51 57l57 -33q-107 -195 -256 -195q-60 0 -135 27q-22 8 -48.5 18t-41.5 15q-69 22 -103 22 q-36 0 -57.5 -21t-44.5 -63z" />
<glyph unicode="&#xc4;" horiz-adv-x="1366" d="M0 0l836 1448h221l186 -1448h-186l-51 455h-549l-262 -455h-195zM543 604h446l-71 725zM657 1591l50 211h186l-49 -211h-187zM1055 1591l47 211h186l-49 -211h-184z" />
<glyph unicode="&#xc5;" horiz-adv-x="1366" d="M0 0l836 1448h221l186 -1448h-186l-51 455h-549l-262 -455h-195zM543 604h446l-71 725zM784 1761q0 79 55 134t134 55q78 0 133 -55t55 -134q0 -78 -55 -133t-133 -55q-79 0 -134 55t-55 133zM877 1761q0 -40 29 -69t67 -29q41 0 69.5 29.5t28.5 68.5q0 40 -28.5 69.5 t-69.5 29.5q-39 0 -67.5 -29.5t-28.5 -69.5z" />
<glyph unicode="&#xc6;" horiz-adv-x="2175" d="M-37 0l1329 1446h897l-35 -152h-708l-94 -477h710l-32 -143h-711l-121 -520h866l-34 -154h-1039l105 461h-492l-416 -461h-225zM735 604h395l162 656z" />
<glyph unicode="&#xc7;" horiz-adv-x="1579" d="M178 637q0 172 53.5 324t156.5 268.5t249 181t326 64.5q153 0 277.5 -43.5t215.5 -141.5t135 -256l-182 -35q-17 54 -35 96.5t-51 82.5q-62 78 -156.5 114.5t-203.5 36.5q-161 0 -275 -66.5t-184 -173.5t-100.5 -226.5t-30.5 -229.5q0 -227 113.5 -369.5t349.5 -142.5 q208 0 346 115q47 39 103 111.5t89 154.5l182 -25q-52 -112 -116.5 -206.5t-177.5 -172.5q-105 -71 -189.5 -91.5t-200.5 -31.5l-47 -65q59 -11 94 -41t48.5 -65.5t13.5 -67.5q0 -49 -27.5 -101t-86.5 -86t-148 -34q-29 0 -107 12l13 59q37 -2 57 -2q119 0 119 82 q0 90 -154 113l148 196q-82 6 -155 20t-153.5 54t-150.5 115q-69 76 -104 167t-44.5 166t-9.5 140z" />
<glyph unicode="&#xc8;" horiz-adv-x="1280" d="M115 0l334 1446h942l-37 -154h-758l-111 -477h695l-33 -143h-694l-121 -518h860l-35 -154h-1042zM727 1833h213l74 -256h-113z" />
<glyph unicode="&#xc9;" horiz-adv-x="1280" d="M115 0l334 1446h942l-37 -154h-758l-111 -477h695l-33 -143h-694l-121 -518h860l-35 -154h-1042zM813 1573l176 260h258l-299 -260h-135z" />
<glyph unicode="&#xca;" horiz-adv-x="1280" d="M115 0l334 1446h942l-37 -154h-758l-111 -477h695l-33 -143h-694l-121 -518h860l-35 -154h-1042zM647 1573l264 260h148l117 -260h-138l-67 162l-160 -162h-164z" />
<glyph unicode="&#xcb;" horiz-adv-x="1280" d="M115 0l334 1446h942l-37 -154h-758l-111 -477h695l-33 -143h-694l-121 -518h860l-35 -154h-1042zM643 1591l49 211h187l-50 -211h-186zM1040 1591l47 211h187l-49 -211h-185z" />
<glyph unicode="&#xcc;" horiz-adv-x="555" d="M117 0l334 1446h176l-334 -1446h-176zM365 1833h213l73 -256h-112z" />
<glyph unicode="&#xcd;" horiz-adv-x="555" d="M117 0l334 1446h176l-334 -1446h-176zM451 1573l176 260h258l-299 -260h-135z" />
<glyph unicode="&#xce;" horiz-adv-x="555" d="M117 0l334 1446h176l-334 -1446h-176zM285 1573l264 260h147l117 -260h-137l-68 162l-159 -162h-164z" />
<glyph unicode="&#xcf;" horiz-adv-x="555" d="M117 0l334 1446h176l-334 -1446h-176zM281 1591l49 211h186l-49 -211h-186zM678 1591l47 211h186l-49 -211h-184z" />
<glyph unicode="&#xd0;" horiz-adv-x="1493" d="M119 0l164 705h-164l33 137h161l140 604h399q100 0 174.5 -6.5t146 -29t130.5 -64.5q67 -48 111.5 -122.5t64.5 -160.5t20 -178q0 -144 -37 -281.5t-105.5 -252t-160.5 -189.5q-69 -59 -140 -92t-144 -48.5t-140 -18.5t-174 -3h-479zM334 147h313q122 2 195.5 12.5 t147 51.5t147.5 131q79 99 119.5 210.5t51.5 196.5t11 132q0 273 -168 364q-40 21 -80 31t-97 14.5t-104 5.5h-270l-106 -454h380l-32 -137h-379z" />
<glyph unicode="&#xd1;" horiz-adv-x="1493" d="M117 0l334 1446h194l473 -1251l273 1251h172l-334 -1446h-187l-479 1255l-272 -1255h-174zM678 1614q91 201 252 201q45 0 108 -21q92 -31 130.5 -41t82.5 -10q41 0 66.5 19t50.5 57l57 -33q-103 -195 -256 -195q-60 0 -135 27q-23 8 -46.5 17.5t-43.5 15.5 q-66 22 -102 22t-56.5 -20t-46.5 -64z" />
<glyph unicode="&#xd2;" horiz-adv-x="1622" d="M195 631q0 210 86.5 404.5t264 317t431.5 122.5q166 0 297.5 -59t210.5 -161q70 -88 104.5 -206.5t34.5 -243.5q-2 -162 -55.5 -309.5t-158 -267.5t-253 -187.5t-326.5 -67.5q-202 0 -346.5 90t-217 240t-72.5 328zM391 633q0 -158 59 -274t162.5 -178t233.5 -62 q124 0 231.5 52t187.5 147t124.5 224.5t44.5 276.5q0 159 -57 275t-161.5 176.5t-240.5 60.5q-189 0 -321.5 -102t-197.5 -263t-65 -333zM899 1833h213l74 -256h-113z" />
<glyph unicode="&#xd3;" horiz-adv-x="1622" d="M195 631q0 210 86.5 404.5t264 317t431.5 122.5q166 0 297.5 -59t210.5 -161q70 -88 104.5 -206.5t34.5 -243.5q-2 -162 -55.5 -309.5t-158 -267.5t-253 -187.5t-326.5 -67.5q-202 0 -346.5 90t-217 240t-72.5 328zM391 633q0 -158 59 -274t162.5 -178t233.5 -62 q124 0 231.5 52t187.5 147t124.5 224.5t44.5 276.5q0 159 -57 275t-161.5 176.5t-240.5 60.5q-189 0 -321.5 -102t-197.5 -263t-65 -333zM985 1573l176 260h258l-299 -260h-135z" />
<glyph unicode="&#xd4;" horiz-adv-x="1622" d="M195 631q0 210 86.5 404.5t264 317t431.5 122.5q166 0 297.5 -59t210.5 -161q70 -88 104.5 -206.5t34.5 -243.5q-2 -162 -55.5 -309.5t-158 -267.5t-253 -187.5t-326.5 -67.5q-202 0 -346.5 90t-217 240t-72.5 328zM391 633q0 -158 59 -274t162.5 -178t233.5 -62 q124 0 231.5 52t187.5 147t124.5 224.5t44.5 276.5q0 159 -57 275t-161.5 176.5t-240.5 60.5q-189 0 -321.5 -102t-197.5 -263t-65 -333zM819 1573l264 260h148l117 -260h-138l-67 162l-160 -162h-164z" />
<glyph unicode="&#xd5;" horiz-adv-x="1622" d="M195 631q0 210 86.5 404.5t264 317t431.5 122.5q166 0 297.5 -59t210.5 -161q70 -88 104.5 -206.5t34.5 -243.5q-2 -162 -55.5 -309.5t-158 -267.5t-253 -187.5t-326.5 -67.5q-202 0 -346.5 90t-217 240t-72.5 328zM391 633q0 -158 59 -274t162.5 -178t233.5 -62 q124 0 231.5 52t187.5 147t124.5 224.5t44.5 276.5q0 159 -57 275t-161.5 176.5t-240.5 60.5q-189 0 -321.5 -102t-197.5 -263t-65 -333zM741 1614q95 201 252 201q44 0 109 -21q93 -31 130.5 -41t82.5 -10q40 0 66 19t51 57l57 -33q-107 -195 -256 -195q-60 0 -135 27 q-22 8 -48.5 18t-41.5 15q-69 22 -103 22q-36 0 -57.5 -21t-44.5 -63z" />
<glyph unicode="&#xd6;" horiz-adv-x="1622" d="M195 631q0 210 86.5 404.5t264 317t431.5 122.5q166 0 297.5 -59t210.5 -161q70 -88 104.5 -206.5t34.5 -243.5q-2 -162 -55.5 -309.5t-158 -267.5t-253 -187.5t-326.5 -67.5q-202 0 -346.5 90t-217 240t-72.5 328zM391 633q0 -158 59 -274t162.5 -178t233.5 -62 q124 0 231.5 52t187.5 147t124.5 224.5t44.5 276.5q0 159 -57 275t-161.5 176.5t-240.5 60.5q-189 0 -321.5 -102t-197.5 -263t-65 -333zM715 1591l49 211h186l-49 -211h-186zM1112 1591l47 211h187l-50 -211h-184z" />
<glyph unicode="&#xd7;" horiz-adv-x="1366" d="M254 188l412 410l-412 412l113 114l413 -411l410 411l115 -114l-410 -412l410 -410l-115 -114l-410 409l-413 -409z" />
<glyph unicode="&#xd8;" horiz-adv-x="1622" d="M193 631q0 176 54.5 329t160.5 270.5t251 181t324 63.5q223 0 393 -121l111 123l96 -88l-110 -125q50 -66 75 -115q72 -151 72 -332q0 -172 -55.5 -325t-157.5 -269.5t-246 -183t-315 -66.5q-105 0 -186 20.5t-130 46.5t-100 60l-117 -129l-100 82l123 137 q-143 159 -143 441zM377 616q0 -98 19 -162.5t55 -134.5l815 910q-58 48 -121.5 77t-167.5 29q-133 0 -246 -59t-191.5 -160t-120.5 -230.5t-42 -269.5zM535 215q52 -40 118 -69t181 -29q137 0 249 55t190.5 150.5t119.5 219t41 259.5q0 126 -23 196t-59 131z" />
<glyph unicode="&#xd9;" horiz-adv-x="1450" d="M219 395q0 91 45 324l168 729h180l-172 -748q-39 -185 -39 -266q0 -97 27 -155q33 -66 104 -109t185 -43q120 0 199 40t128 110.5t78 159.5t58 216l182 795h180l-201 -868q-36 -178 -98 -308t-191.5 -214.5t-344.5 -84.5q-115 0 -224.5 36.5t-186.5 131.5t-77 254z M813 1833h213l74 -256h-113z" />
<glyph unicode="&#xda;" horiz-adv-x="1450" d="M219 395q0 91 45 324l168 729h180l-172 -748q-39 -185 -39 -266q0 -97 27 -155q33 -66 104 -109t185 -43q120 0 199 40t128 110.5t78 159.5t58 216l182 795h180l-201 -868q-36 -178 -98 -308t-191.5 -214.5t-344.5 -84.5q-115 0 -224.5 36.5t-186.5 131.5t-77 254z M899 1573l176 260h258l-299 -260h-135z" />
<glyph unicode="&#xdb;" horiz-adv-x="1450" d="M219 395q0 91 45 324l168 729h180l-172 -748q-39 -185 -39 -266q0 -97 27 -155q33 -66 104 -109t185 -43q120 0 199 40t128 110.5t78 159.5t58 216l182 795h180l-201 -868q-36 -178 -98 -308t-191.5 -214.5t-344.5 -84.5q-115 0 -224.5 36.5t-186.5 131.5t-77 254z M733 1573l264 260h148l117 -260h-138l-67 162l-160 -162h-164z" />
<glyph unicode="&#xdc;" horiz-adv-x="1450" d="M219 395q0 91 45 324l168 729h180l-172 -748q-39 -185 -39 -266q0 -97 27 -155q33 -66 104 -109t185 -43q120 0 199 40t128 110.5t78 159.5t58 216l182 795h180l-201 -868q-36 -178 -98 -308t-191.5 -214.5t-344.5 -84.5q-115 0 -224.5 36.5t-186.5 131.5t-77 254z M733 1591l49 211h187l-49 -211h-187zM1130 1591l48 211h186l-49 -211h-185z" />
<glyph unicode="&#xdd;" horiz-adv-x="1194" d="M289 1446h182l195 -653l565 653h217l-733 -817l-146 -629h-182l150 649zM772 1573l176 260h258l-299 -260h-135z" />
<glyph unicode="&#xde;" horiz-adv-x="1323" d="M113 0l333 1446h181l-60 -264h379q79 0 144.5 -12.5t126.5 -47.5q163 -94 163 -309q0 -115 -39.5 -195.5t-90 -121.5t-109.5 -72q-65 -33 -127.5 -48.5t-123.5 -19.5t-161 -4h-354l-82 -352h-180zM410 504h321q85 0 134 2.5t93 13.5q82 21 136.5 66t81 104t26.5 121 q0 209 -246 217h-426z" />
<glyph unicode="&#xdf;" d="M92 0l234 1010q29 134 74 231t138 160t244 63q95 0 175.5 -31.5t129 -97t48.5 -164.5q0 -101 -43 -178q-52 -93 -127.5 -120.5t-178.5 -34.5q110 -22 188.5 -84.5t78.5 -237.5q0 -52 -9 -110t-30 -118t-58 -116.5t-90 -97.5q-76 -57 -165.5 -74.5t-182.5 -17.5 q-85 0 -170 18l33 143q123 -20 154 -20q152 0 227 65q64 55 94.5 153.5t30.5 178.5q0 105 -46 157t-108.5 66.5t-142.5 16.5l35 153q189 0 265.5 74t76.5 172q0 85 -52 128.5t-133 43.5q-121 0 -194 -80q-73 -79 -131 -338l-209 -913h-156z" />
<glyph unicode="&#xe0;" horiz-adv-x="1024" d="M74 219q0 51 18.5 102t52.5 91q49 60 123.5 88.5t188.5 46.5q28 5 162 24.5t159 24.5q21 102 21 127q0 88 -64 113.5t-127 25.5q-125 0 -172 -57t-61 -139l-182 16q28 80 69.5 144t130 110.5t232.5 46.5q77 0 133.5 -13.5t105.5 -47.5q42 -26 70.5 -67t28.5 -107 q0 -45 -19 -132l-88 -378q-8 -41 -8 -60q0 -51 49 -51q31 0 66 14l-31 -133q-60 -14 -96 -14q-73 0 -107.5 37.5t-34.5 81.5q1 7 1.5 13t0.5 15q-26 -40 -54 -68.5t-85 -54.5q-87 -38 -197 -38q-99 0 -163.5 34.5t-93.5 89t-29 115.5zM252 233q0 -63 47.5 -98t116.5 -35 q46 0 106.5 19.5t104.5 54.5q45 38 63.5 80t32.5 102l27 117q-125 -16 -183 -25t-103 -20.5t-89 -32.5q-123 -51 -123 -162zM501 1399h207l95 -312h-109z" />
<glyph unicode="&#xe1;" horiz-adv-x="1024" d="M74 219q0 51 18.5 102t52.5 91q49 60 123.5 88.5t188.5 46.5q28 5 162 24.5t159 24.5q21 102 21 127q0 88 -64 113.5t-127 25.5q-125 0 -172 -57t-61 -139l-182 16q28 80 69.5 144t130 110.5t232.5 46.5q77 0 133.5 -13.5t105.5 -47.5q42 -26 70.5 -67t28.5 -107 q0 -45 -19 -132l-88 -378q-8 -41 -8 -60q0 -51 49 -51q31 0 66 14l-31 -133q-60 -14 -96 -14q-73 0 -107.5 37.5t-34.5 81.5q1 7 1.5 13t0.5 15q-26 -40 -54 -68.5t-85 -54.5q-87 -38 -197 -38q-99 0 -163.5 34.5t-93.5 89t-29 115.5zM252 233q0 -63 47.5 -98t116.5 -35 q46 0 106.5 19.5t104.5 54.5q45 38 63.5 80t32.5 102l27 117q-125 -16 -183 -25t-103 -20.5t-89 -32.5q-123 -51 -123 -162zM569 1092l176 307h240l-293 -307h-123z" />
<glyph unicode="&#xe2;" horiz-adv-x="1024" d="M74 219q0 51 18.5 102t52.5 91q49 60 123.5 88.5t188.5 46.5q28 5 162 24.5t159 24.5q21 102 21 127q0 88 -64 113.5t-127 25.5q-125 0 -172 -57t-61 -139l-182 16q28 80 69.5 144t130 110.5t232.5 46.5q77 0 133.5 -13.5t105.5 -47.5q42 -26 70.5 -67t28.5 -107 q0 -45 -19 -132l-88 -378q-8 -41 -8 -60q0 -51 49 -51q31 0 66 14l-31 -133q-60 -14 -96 -14q-73 0 -107.5 37.5t-34.5 81.5q1 7 1.5 13t0.5 15q-26 -40 -54 -68.5t-85 -54.5q-87 -38 -197 -38q-99 0 -163.5 34.5t-93.5 89t-29 115.5zM252 233q0 -63 47.5 -98t116.5 -35 q46 0 106.5 19.5t104.5 54.5q45 38 63.5 80t32.5 102l27 117q-125 -16 -183 -25t-103 -20.5t-89 -32.5q-123 -51 -123 -162zM373 1083l317 316h148l141 -316h-139l-92 217l-207 -217h-168z" />
<glyph unicode="&#xe3;" horiz-adv-x="1024" d="M74 219q0 51 18.5 102t52.5 91q49 60 123.5 88.5t188.5 46.5q28 5 162 24.5t159 24.5q21 102 21 127q0 88 -64 113.5t-127 25.5q-125 0 -172 -57t-61 -139l-182 16q28 80 69.5 144t130 110.5t232.5 46.5q77 0 133.5 -13.5t105.5 -47.5q42 -26 70.5 -67t28.5 -107 q0 -45 -19 -132l-88 -378q-8 -41 -8 -60q0 -51 49 -51q31 0 66 14l-31 -133q-60 -14 -96 -14q-73 0 -107.5 37.5t-34.5 81.5q1 7 1.5 13t0.5 15q-26 -40 -54 -68.5t-85 -54.5q-87 -38 -197 -38q-99 0 -163.5 34.5t-93.5 89t-29 115.5zM252 233q0 -63 47.5 -98t116.5 -35 q46 0 106.5 19.5t104.5 54.5q45 38 63.5 80t32.5 102l27 117q-125 -16 -183 -25t-103 -20.5t-89 -32.5q-123 -51 -123 -162zM385 1178q39 73 88 125.5t131 52.5q34 0 59 -7.5t103 -41.5q65 -29 109 -29q39 0 63.5 20.5t48.5 57.5l54 -33q-39 -69 -89.5 -124.5t-129.5 -55.5 q-28 0 -48 6q-44 12 -47.5 13t-34 12t-46.5 17.5t-27 10.5q-48 23 -76 23q-34 0 -54.5 -16t-43.5 -48z" />
<glyph unicode="&#xe4;" horiz-adv-x="1024" d="M74 219q0 51 18.5 102t52.5 91q49 60 123.5 88.5t188.5 46.5q28 5 162 24.5t159 24.5q21 102 21 127q0 88 -64 113.5t-127 25.5q-125 0 -172 -57t-61 -139l-182 16q28 80 69.5 144t130 110.5t232.5 46.5q77 0 133.5 -13.5t105.5 -47.5q42 -26 70.5 -67t28.5 -107 q0 -45 -19 -132l-88 -378q-8 -41 -8 -60q0 -51 49 -51q31 0 66 14l-31 -133q-60 -14 -96 -14q-73 0 -107.5 37.5t-34.5 81.5q1 7 1.5 13t0.5 15q-26 -40 -54 -68.5t-85 -54.5q-87 -38 -197 -38q-99 0 -163.5 34.5t-93.5 89t-29 115.5zM252 233q0 -63 47.5 -98t116.5 -35 q46 0 106.5 19.5t104.5 54.5q45 38 63.5 80t32.5 102l27 117q-125 -16 -183 -25t-103 -20.5t-89 -32.5q-123 -51 -123 -162zM377 1130l47 207h186l-47 -207h-186zM774 1130l47 207h186l-47 -207h-186z" />
<glyph unicode="&#xe5;" horiz-adv-x="1024" d="M74 219q0 51 18.5 102t52.5 91q49 60 123.5 88.5t188.5 46.5q28 5 162 24.5t159 24.5q21 102 21 127q0 88 -64 113.5t-127 25.5q-125 0 -172 -57t-61 -139l-182 16q28 80 69.5 144t130 110.5t232.5 46.5q77 0 133.5 -13.5t105.5 -47.5q42 -26 70.5 -67t28.5 -107 q0 -45 -19 -132l-88 -378q-8 -41 -8 -60q0 -51 49 -51q31 0 66 14l-31 -133q-60 -14 -96 -14q-73 0 -107.5 37.5t-34.5 81.5q1 7 1.5 13t0.5 15q-26 -40 -54 -68.5t-85 -54.5q-87 -38 -197 -38q-99 0 -163.5 34.5t-93.5 89t-29 115.5zM252 233q0 -63 47.5 -98t116.5 -35 q46 0 106.5 19.5t104.5 54.5q45 38 63.5 80t32.5 102l27 117q-125 -16 -183 -25t-103 -20.5t-89 -32.5q-123 -51 -123 -162zM506 1247q0 77 53 131t131 54q51 0 92.5 -24.5t66.5 -67t25 -93.5q0 -78 -54 -131t-130 -53t-130 54t-54 130zM592 1247q0 -40 29 -69t69 -29t69 29 t29 69q0 42 -28.5 70.5t-69.5 28.5t-69.5 -28.5t-28.5 -70.5z" />
<glyph unicode="&#xe6;" horiz-adv-x="1706" d="M70 223q0 127 100 215q47 42 131 72t258 53l199 27q14 85 14 125q0 76 -43 114q-42 39 -125 39q-119 0 -166 -58.5t-65 -129.5l-176 27q22 58 63 120t126.5 112t215.5 50q112 0 195 -45q73 -40 116 -125q26 34 51 58.5t68 48.5q109 63 244 63q78 0 137 -19.5t95 -46 t57 -51.5q94 -103 94 -297q0 -54 -8 -112h-742q-6 -34 -6 -66q0 -135 79 -217t208 -82q124 0 186 59.5t97 137.5l155 -21q-38 -87 -84 -145.5t-131 -99.5q-104 -52 -233 -52q-124 0 -208 36t-125.5 80t-72.5 93q-35 -52 -92 -100q-64 -52 -145 -80.5t-168 -28.5 q-91 0 -158.5 31.5t-104 87t-36.5 127.5zM244 242q0 -62 47 -105t131 -43q130 0 227 125q57 85 88 258q-177 -28 -272 -50t-158 -66t-63 -119zM930 578h571q2 22 2 40q0 123 -67 184.5t-170 61.5q-131 0 -218.5 -84.5t-117.5 -201.5z" />
<glyph unicode="&#xe7;" horiz-adv-x="1024" d="M127 381q0 160 65.5 299t190 224t283.5 85q116 0 198 -39.5t126 -106t52 -147.5l-151 -34q-20 79 -67 137.5t-167 58.5q-109 0 -193 -70t-127.5 -177.5t-43.5 -219.5q0 -77 28 -145.5t85 -110t141 -41.5t155 47q38 25 63.5 54.5t38 53.5t27.5 64l168 -20 q-41 -105 -105.5 -169.5t-113.5 -90.5q-87 -50 -213 -56l-47 -63q121 -16 121 -125q0 -61 -54.5 -120.5t-187.5 -59.5q-37 0 -59 4l14 55q56 0 89.5 12t33.5 52q0 38 -28.5 52t-77.5 21l125 175q-79 8 -122 19t-95 48q-60 44 -93.5 99.5t-46 116t-12.5 118.5z" />
<glyph unicode="&#xe8;" horiz-adv-x="1067" d="M127 387q0 110 35.5 218t104 195t168.5 138t227 51q182 0 272 -107.5t90 -287.5q0 -53 -12 -127h-723q-4 -54 -4 -72q0 -161 88.5 -227t183.5 -66q55 0 105 21q73 28 109 72.5t63 103.5l151 -27q-46 -114 -125.5 -180t-166.5 -90.5t-171 -24.5q-180 0 -287.5 110 t-107.5 300zM319 584h545q2 16 2 43q0 76 -31 130.5t-80.5 81.5t-103.5 27q-81 0 -182 -63t-150 -219zM524 1399h207l95 -312h-109z" />
<glyph unicode="&#xe9;" horiz-adv-x="1067" d="M127 387q0 110 35.5 218t104 195t168.5 138t227 51q182 0 272 -107.5t90 -287.5q0 -53 -12 -127h-723q-4 -54 -4 -72q0 -161 88.5 -227t183.5 -66q55 0 105 21q73 28 109 72.5t63 103.5l151 -27q-46 -114 -125.5 -180t-166.5 -90.5t-171 -24.5q-180 0 -287.5 110 t-107.5 300zM319 584h545q2 16 2 43q0 76 -31 130.5t-80.5 81.5t-103.5 27q-81 0 -182 -63t-150 -219zM592 1092l176 307h240l-293 -307h-123z" />
<glyph unicode="&#xea;" horiz-adv-x="1067" d="M127 387q0 110 35.5 218t104 195t168.5 138t227 51q182 0 272 -107.5t90 -287.5q0 -53 -12 -127h-723q-4 -54 -4 -72q0 -161 88.5 -227t183.5 -66q55 0 105 21q73 28 109 72.5t63 103.5l151 -27q-46 -114 -125.5 -180t-166.5 -90.5t-171 -24.5q-180 0 -287.5 110 t-107.5 300zM319 584h545q2 16 2 43q0 76 -31 130.5t-80.5 81.5t-103.5 27q-81 0 -182 -63t-150 -219zM395 1083l317 316h148l141 -316h-139l-92 217l-207 -217h-168z" />
<glyph unicode="&#xeb;" horiz-adv-x="1067" d="M127 387q0 110 35.5 218t104 195t168.5 138t227 51q182 0 272 -107.5t90 -287.5q0 -53 -12 -127h-723q-4 -54 -4 -72q0 -161 88.5 -227t183.5 -66q55 0 105 21q73 28 109 72.5t63 103.5l151 -27q-46 -114 -125.5 -180t-166.5 -90.5t-171 -24.5q-180 0 -287.5 110 t-107.5 300zM319 584h545q2 16 2 43q0 76 -31 130.5t-80.5 81.5t-103.5 27q-81 0 -182 -63t-150 -219zM441 1130l47 207h186l-47 -207h-186zM838 1130l47 207h186l-47 -207h-186z" />
<glyph unicode="&#xec;" horiz-adv-x="469" d="M86 0l221 965h160l-223 -965h-158zM213 1399h207l95 -312h-109z" />
<glyph unicode="&#xed;" horiz-adv-x="469" d="M86 0l221 965h160l-223 -965h-158zM313 1092l176 307h240l-293 -307h-123z" />
<glyph unicode="&#xee;" horiz-adv-x="469" d="M86 0l221 965h160l-223 -965h-158zM96 1083l317 316h148l141 -316h-139l-92 217l-207 -217h-168z" />
<glyph unicode="&#xef;" horiz-adv-x="469" d="M86 0l221 965h160l-223 -965h-158zM142 1130l47 207h186l-47 -207h-186zM539 1130l47 207h186l-47 -207h-186z" />
<glyph unicode="&#xf0;" d="M125 406q0 107 37 209t108.5 187.5t172.5 136t219 50.5q76 0 136 -26t91 -66q7 -10 15.5 -21.5t12 -16.5t5.5 -5t2 4q0 10 -17.5 73t-19.5 66q-24 73 -74 168l-338 -94l-33 90l318 88q-64 89 -131 164l110 64q82 -93 146 -193l178 49l33 -90l-160 -45q36 -67 64.5 -134.5 t51.5 -174t23 -246.5q0 -156 -32 -258t-91 -186q-158 -222 -424 -222q-139 0 -230 64t-132 162.5t-41 202.5zM291 389q0 -156 73.5 -223.5t167.5 -67.5q114 0 198.5 71.5t129.5 188t45 238.5q-3 129 -69 198.5t-168 69.5q-109 0 -195 -65t-134 -176t-48 -234z" />
<glyph unicode="&#xf1;" d="M84 0l223 965h162l-33 -140q62 65 139.5 114.5t190.5 49.5q52 0 102 -15.5t89.5 -46t63 -77t23.5 -107.5q0 -43 -22 -161l-135 -582h-160l137 594q15 59 15 113q0 62 -39 107.5t-127 45.5q-114 0 -199 -65q-60 -49 -91.5 -116t-66.5 -204l-110 -475h-162zM428 1178 q39 73 88 125.5t131 52.5q34 0 59 -7.5t103 -41.5q65 -29 109 -29q39 0 63.5 20.5t48.5 57.5l54 -33q-39 -69 -89.5 -124.5t-129.5 -55.5q-28 0 -48 6q-44 12 -47.5 13t-34 12t-46.5 17.5t-27 10.5q-48 23 -76 23q-34 0 -54.5 -16t-43.5 -48z" />
<glyph unicode="&#xf2;" d="M127 399q0 167 71.5 302t196 211.5t271.5 76.5q78 0 148.5 -24.5t125.5 -74t89.5 -129t37.5 -183.5q0 -117 -36.5 -225t-108 -194t-170 -134t-217.5 -48t-211.5 51t-144.5 146.5t-52 224.5zM291 389q0 -125 51 -196q33 -45 82.5 -70t105.5 -25q34 0 84 13t113 58.5 t111 133.5q67 126 67 293q-3 129 -69 198.5t-168 69.5q-109 0 -195 -65t-134 -176t-48 -234zM544 1399h207l95 -312h-109z" />
<glyph unicode="&#xf3;" d="M127 399q0 167 71.5 302t196 211.5t271.5 76.5q78 0 148.5 -24.5t125.5 -74t89.5 -129t37.5 -183.5q0 -117 -36.5 -225t-108 -194t-170 -134t-217.5 -48t-211.5 51t-144.5 146.5t-52 224.5zM291 389q0 -125 51 -196q33 -45 82.5 -70t105.5 -25q34 0 84 13t113 58.5 t111 133.5q67 126 67 293q-3 129 -69 198.5t-168 69.5q-109 0 -195 -65t-134 -176t-48 -234zM612 1092l176 307h240l-293 -307h-123z" />
<glyph unicode="&#xf4;" d="M127 399q0 167 71.5 302t196 211.5t271.5 76.5q78 0 148.5 -24.5t125.5 -74t89.5 -129t37.5 -183.5q0 -117 -36.5 -225t-108 -194t-170 -134t-217.5 -48t-211.5 51t-144.5 146.5t-52 224.5zM291 389q0 -125 51 -196q33 -45 82.5 -70t105.5 -25q34 0 84 13t113 58.5 t111 133.5q67 126 67 293q-3 129 -69 198.5t-168 69.5q-109 0 -195 -65t-134 -176t-48 -234zM416 1083l317 316h148l141 -316h-139l-92 217l-207 -217h-168z" />
<glyph unicode="&#xf5;" d="M127 399q0 167 71.5 302t196 211.5t271.5 76.5q78 0 148.5 -24.5t125.5 -74t89.5 -129t37.5 -183.5q0 -117 -36.5 -225t-108 -194t-170 -134t-217.5 -48t-211.5 51t-144.5 146.5t-52 224.5zM291 389q0 -125 51 -196q33 -45 82.5 -70t105.5 -25q34 0 84 13t113 58.5 t111 133.5q67 126 67 293q-3 129 -69 198.5t-168 69.5q-109 0 -195 -65t-134 -176t-48 -234zM428 1178q39 73 88 125.5t131 52.5q34 0 59 -7.5t103 -41.5q65 -29 109 -29q39 0 63.5 20.5t48.5 57.5l54 -33q-39 -69 -89.5 -124.5t-129.5 -55.5q-28 0 -48 6q-44 12 -47.5 13 t-34 12t-46.5 17.5t-27 10.5q-48 23 -76 23q-34 0 -54.5 -16t-43.5 -48z" />
<glyph unicode="&#xf6;" d="M127 399q0 167 71.5 302t196 211.5t271.5 76.5q78 0 148.5 -24.5t125.5 -74t89.5 -129t37.5 -183.5q0 -117 -36.5 -225t-108 -194t-170 -134t-217.5 -48t-211.5 51t-144.5 146.5t-52 224.5zM291 389q0 -125 51 -196q33 -45 82.5 -70t105.5 -25q34 0 84 13t113 58.5 t111 133.5q67 126 67 293q-3 129 -69 198.5t-168 69.5q-109 0 -195 -65t-134 -176t-48 -234zM414 1130l47 207h186l-47 -207h-186zM811 1130l47 207h186l-47 -207h-186z" />
<glyph unicode="&#xf7;" horiz-adv-x="1366" d="M86 514v162h1364v-162h-1364zM655 297q0 47 34 81t81 34q31 0 58 -16t42 -42.5t15 -56.5q0 -48 -33.5 -81.5t-81.5 -33.5q-46 0 -80.5 33.5t-34.5 81.5zM655 893q0 47 34 81t81 34q31 0 58 -16t42 -42.5t15 -56.5q0 -48 -33.5 -81.5t-81.5 -33.5q-46 0 -80.5 33.5 t-34.5 81.5z" />
<glyph unicode="&#xf8;" d="M72 57l110 111q-24 49 -39.5 98.5t-15.5 132.5q0 107 34 207t87 172q72 99 186.5 155t233.5 56q130 0 252 -82l90 90l71 -69l-92 -92q80 -125 80 -275q0 -99 -33 -200.5t-99.5 -189.5t-167.5 -142t-232 -54q-79 0 -136.5 18t-92.5 42t-66 53l-103 -98zM283 393 q0 -43 12 -108l530 528q-28 22 -66 36.5t-91 14.5q-92 0 -166 -45t-122.5 -117t-72.5 -154.5t-24 -154.5zM336 186q81 -92 201 -92q100 0 187.5 67t139 180t51.5 245q0 76 -30 145z" />
<glyph unicode="&#xf9;" d="M152 207q0 28 8 72.5t22 109.5l131 576h162l-131 -574q-22 -114 -22 -143q0 -37 14 -66q17 -29 58.5 -49t97.5 -20q43 0 93 13.5t91 39.5q43 26 72 64t47.5 81t30.5 87.5t34 140.5l98 426h154l-221 -965h-156l35 152q-60 -73 -121 -109q-54 -31 -113 -46t-118 -15 q-117 0 -191.5 61t-74.5 164zM522 1399h207l95 -312h-109z" />
<glyph unicode="&#xfa;" d="M152 207q0 28 8 72.5t22 109.5l131 576h162l-131 -574q-22 -114 -22 -143q0 -37 14 -66q17 -29 58.5 -49t97.5 -20q43 0 93 13.5t91 39.5q43 26 72 64t47.5 81t30.5 87.5t34 140.5l98 426h154l-221 -965h-156l35 152q-60 -73 -121 -109q-54 -31 -113 -46t-118 -15 q-117 0 -191.5 61t-74.5 164zM612 1092l176 307h240l-293 -307h-123z" />
<glyph unicode="&#xfb;" d="M152 207q0 28 8 72.5t22 109.5l131 576h162l-131 -574q-22 -114 -22 -143q0 -37 14 -66q17 -29 58.5 -49t97.5 -20q43 0 93 13.5t91 39.5q43 26 72 64t47.5 81t30.5 87.5t34 140.5l98 426h154l-221 -965h-156l35 152q-60 -73 -121 -109q-54 -31 -113 -46t-118 -15 q-117 0 -191.5 61t-74.5 164zM416 1083l317 316h148l141 -316h-139l-92 217l-207 -217h-168z" />
<glyph unicode="&#xfc;" d="M152 207q0 28 8 72.5t22 109.5l131 576h162l-131 -574q-22 -114 -22 -143q0 -37 14 -66q17 -29 58.5 -49t97.5 -20q43 0 93 13.5t91 39.5q43 26 72 64t47.5 81t30.5 87.5t34 140.5l98 426h154l-221 -965h-156l35 152q-60 -73 -121 -109q-54 -31 -113 -46t-118 -15 q-117 0 -191.5 61t-74.5 164zM461 1130l47 207h186l-47 -207h-186zM858 1130l47 207h186l-47 -207h-186z" />
<glyph unicode="&#xfd;" horiz-adv-x="938" d="M-111 -465l33 139q34 -6 76 -6q55 0 100 27q30 17 86 104l127 217l-106 949h157l76 -770l426 770h178l-729 -1231q-57 -90 -89.5 -127.5t-84 -58.5t-139.5 -21q-53 0 -111 8zM526 1092l176 307h240l-293 -307h-123z" />
<glyph unicode="&#xfe;" d="M-12 -440l436 1886h158l-140 -602q47 58 111.5 98.5t175.5 40.5q90 0 169 -39t129 -124.5t50 -219.5q0 -117 -35 -229t-100.5 -199.5t-160.5 -138.5t-210 -51q-188 0 -264 137q-3 5 -20 45l-140 -604h-159zM342 342q0 -102 45 -153t92.5 -63.5t83.5 -12.5q107 0 188 71 t124 183t43 233q-3 155 -79.5 204.5t-146.5 49.5q-67 0 -142.5 -38t-127.5 -140q-30 -61 -55 -157t-25 -177z" />
<glyph unicode="&#xff;" horiz-adv-x="938" d="M-111 -465l33 139q34 -6 76 -6q55 0 100 27q30 17 86 104l127 217l-106 949h157l76 -770l426 770h178l-729 -1231q-57 -90 -89.5 -127.5t-84 -58.5t-139.5 -21q-53 0 -111 8zM375 1130l47 207h186l-47 -207h-186zM772 1130l47 207h186l-47 -207h-186z" />
<glyph unicode="&#x152;" horiz-adv-x="2261" d="M193 627q0 244 102 435t274 296.5t373 105.5q229 0 365 -129q31 -29 51.5 -62.5t34.5 -66.5l47 240h858l-25 -150h-692l-98 -477h669l-32 -143h-670l-107 -524h826l-35 -152h-993l43 182q-24 -30 -57.5 -63t-83.5 -64t-124 -52t-167 -21q-160 0 -287 80.5t-199.5 227 t-72.5 337.5zM381 623q0 -121 32 -214t87.5 -153.5t128 -90.5t151.5 -30q89 0 170.5 37t143.5 100q73 76 118.5 186t67 230.5t23.5 226.5q0 142 -46 232q-45 87 -129 129.5t-194 42.5q-151 0 -279 -90.5t-201 -250t-73 -355.5z" />
<glyph unicode="&#x153;" horiz-adv-x="1792" d="M125 393q0 131 54.5 269.5t171.5 232.5t290 94q67 0 127 -18q101 -29 147 -76.5t74 -103.5q67 80 154 139t229 59q74 0 146 -24q147 -53 189 -161t42 -208q0 -71 -12 -137h-721q-4 -42 -4 -62q0 -111 46 -178t110 -96t120 -29q53 0 94 19q49 18 86.5 51.5t57 65 t39.5 71.5l153 -25q-54 -140 -171.5 -220.5t-272.5 -80.5q-65 0 -133.5 18t-126.5 54q-30 19 -51 40t-37 42.5t-29 38.5q-69 -77 -159.5 -134t-223.5 -57q-108 0 -197.5 48.5t-140.5 141.5t-51 226zM289 399q0 -148 69 -222.5t160 -74.5q101 0 182 72t124.5 188t43.5 240 q-1 73 -23.5 126.5t-56.5 83t-71 42t-78 12.5q-101 0 -181.5 -67.5t-124.5 -174t-44 -225.5zM1036 578h551q1 16 1.5 28t0.5 31q0 80 -36 132t-85.5 73.5t-97.5 21.5q-57 0 -114 -25.5t-101 -67.5t-74.5 -92.5t-44.5 -100.5z" />
<glyph unicode="&#x178;" horiz-adv-x="1194" d="M289 1446h182l195 -653l565 653h217l-733 -817l-146 -629h-182l150 649zM602 1591l49 211h187l-50 -211h-186zM999 1591l48 211h186l-49 -211h-185z" />
<glyph unicode="&#x2c6;" horiz-adv-x="598" d="M-4 1083l317 316h148l141 -316h-139l-92 217l-207 -217h-168z" />
<glyph unicode="&#x2dc;" horiz-adv-x="598" d="M-29 1178q39 73 88 125.5t131 52.5q34 0 59 -7.5t103 -41.5q65 -29 109 -29q39 0 63.5 20.5t48.5 57.5l54 -33q-39 -69 -89.5 -124.5t-129.5 -55.5q-28 0 -48 6q-44 12 -47.5 13t-34 12t-46.5 17.5t-27 10.5q-48 23 -76 23q-34 0 -54.5 -16t-43.5 -48z" />
<glyph unicode="&#x2000;" horiz-adv-x="975" />
<glyph unicode="&#x2001;" horiz-adv-x="1950" />
<glyph unicode="&#x2002;" horiz-adv-x="975" />
<glyph unicode="&#x2003;" horiz-adv-x="1950" />
<glyph unicode="&#x2004;" horiz-adv-x="650" />
<glyph unicode="&#x2005;" horiz-adv-x="487" />
<glyph unicode="&#x2006;" horiz-adv-x="325" />
<glyph unicode="&#x2007;" horiz-adv-x="325" />
<glyph unicode="&#x2008;" horiz-adv-x="243" />
<glyph unicode="&#x2009;" horiz-adv-x="390" />
<glyph unicode="&#x200a;" horiz-adv-x="108" />
<glyph unicode="&#x2010;" horiz-adv-x="641" d="M176 588l35 149h418l-35 -149h-418z" />
<glyph unicode="&#x2011;" horiz-adv-x="641" d="M176 588l35 149h418l-35 -149h-418z" />
<glyph unicode="&#x2012;" horiz-adv-x="641" d="M176 588l35 149h418l-35 -149h-418z" />
<glyph unicode="&#x2013;" horiz-adv-x="1194" d="M176 586l35 151h975l-37 -151h-973z" />
<glyph unicode="&#x2014;" horiz-adv-x="1323" d="M176 588l37 151h1098l-35 -151h-1100z" />
<glyph unicode="&#x2018;" horiz-adv-x="469" d="M274 905q23 155 62 270.5t129 270.5h102q-36 -64 -64 -122t-40.5 -96.5t-22.5 -97.5h76l-43 -225h-199z" />
<glyph unicode="&#x2019;" horiz-adv-x="469" d="M297 901q105 182 129 316h-78l53 229h203q-16 -104 -44.5 -200.5t-68.5 -180.5t-90 -164h-104z" />
<glyph unicode="&#x201a;" horiz-adv-x="469" d="M16 -315q56 96 83.5 160t47.5 155h-81l51 225h194q-23 -187 -83.5 -328.5t-110.5 -211.5h-101z" />
<glyph unicode="&#x201c;" horiz-adv-x="725" d="M248 907q29 263 190 539h97q-58 -111 -81.5 -174t-41.5 -139h82l-54 -226h-192zM555 907q26 173 78.5 297.5t120.5 241.5h98q-46 -70 -80.5 -157t-50.5 -156h86l-53 -226h-199z" />
<glyph unicode="&#x201d;" horiz-adv-x="725" d="M283 909q68 148 84.5 190.5t33.5 125.5h-90l51 221h199q-19 -135 -52 -237.5t-134 -299.5h-92zM598 909q38 76 57.5 118.5t35.5 90t32 107.5h-86l51 221h203q-17 -109 -60 -238t-141 -299h-92z" />
<glyph unicode="&#x201e;" horiz-adv-x="725" d="M-2 -311q57 105 79 158t48 153h-86l53 225h197q-9 -62 -22 -121t-31.5 -114t-52 -129t-87.5 -172h-98zM313 -311q33 66 61 127t40.5 101.5t21.5 82.5h-84l54 225h192q-12 -76 -26.5 -141t-54 -167t-107.5 -228h-97z" />
<glyph unicode="&#x2022;" horiz-adv-x="682" d="M172 723q0 110 78 188t188 78q72 0 134 -35.5t97.5 -96.5t35.5 -134q0 -110 -78 -188t-189 -78q-110 0 -188 78t-78 188z" />
<glyph unicode="&#x2026;" horiz-adv-x="2048" d="M152 0l47 225h204l-45 -225h-206zM836 0l47 225h204l-45 -225h-206zM1520 0l47 225h205l-46 -225h-206z" />
<glyph unicode="&#x202f;" horiz-adv-x="390" />
<glyph unicode="&#x2039;" horiz-adv-x="469" d="M152 602l30 135l338 236l-47 -197l-180 -119l123 -135l-39 -164z" />
<glyph unicode="&#x203a;" horiz-adv-x="469" d="M113 354l45 193l182 123l-123 135l37 164l227 -242l-32 -139z" />
<glyph unicode="&#x205f;" horiz-adv-x="487" />
<glyph unicode="&#x2122;" horiz-adv-x="1407" d="M170 1346v100h553v-100h-215v-580h-119v580h-219zM780 766v680h162l170 -537l166 537h162v-680h-117l4 422q0 50 6 137l-33 -115l-139 -444h-104l-142 444l-32 113q4 -41 5.5 -77t2.5 -58l4 -422h-115z" />
<glyph unicode="&#x25fc;" horiz-adv-x="965" d="M0 0v965h965v-965h-965z" />
</font>
</defs>
</svg>
